<svg width="16" height="16" viewBox="0 0 16 16" fill="none" xmlns="http://www.w3.org/2000/svg">
<g clip-path="url(#clip0_1547_1022)">
<path d="M8.25398 5.7476C7.97421 5.72544 7.36519 5.71784 6.42705 5.91255C5.0902 6.19013 4.47319 7.42428 4.47319 8.39116C4.47319 9.35766 5.39857 10.4787 6.78697 10.4787C7.84934 10.4787 8.44831 9.84 8.67047 9.54013C8.72035 9.47351 8.82073 9.47686 8.86596 9.54696C8.92099 9.63278 8.99947 9.74657 9.10063 9.8717C9.20913 10.0064 9.35398 10.1405 9.47137 10.2412C9.58478 10.3385 9.75359 10.3328 9.8621 10.2301L10.7823 9.35327C10.8889 9.25173 10.9037 9.08704 10.8163 8.96861C10.7656 8.89992 10.7015 8.81126 10.6224 8.69967C10.3755 8.34992 10.3859 8.07235 10.3859 8.07235V4.8226C10.3859 4.43188 10.1493 2.82776 7.66068 2.82776C5.62834 2.82776 5.00901 4.27479 4.85012 4.80546C4.81971 4.90701 4.88582 5.01152 4.99033 5.02905L6.25231 5.24232C6.32898 5.25521 6.40514 5.21693 6.43955 5.14709C6.57795 4.86693 6.98027 4.18498 7.60927 4.18498C8.4014 4.18523 8.4322 4.83304 8.4322 4.83304V5.58188C8.4322 5.67853 8.35063 5.75508 8.25398 5.7476ZM8.45295 6.94941V7.89696C8.45295 8.3918 8.11223 8.82557 7.62924 8.93278C7.50437 8.96075 7.36159 8.97724 7.19806 8.97724C6.14922 8.97724 6.34458 7.63008 6.82808 7.22892C7.19445 6.92479 7.93865 6.8217 8.27756 6.78987C8.37176 6.78098 8.45295 6.85495 8.45295 6.94941Z" fill="#11223F"/>
<path d="M11.3989 10.8922C11.908 10.8306 12.1317 10.7666 12.2859 10.9029C12.4402 11.039 12.3861 11.3166 12.2859 11.6328C12.1859 11.9488 11.9382 12.2126 12.1779 12.3425C12.458 12.4941 13.5365 11.0993 13.0882 10.4065C12.7154 9.83049 11.1521 10.476 11.0365 10.5529C10.9209 10.6302 10.9209 10.7225 10.9209 10.7225C10.9209 10.7225 10.8901 10.9541 11.3989 10.8922Z" fill="#11223F"/>
<path d="M7.538 13.1722C9.41931 13.1722 10.2113 12.7819 11.0238 12.3295C11.8361 11.8769 11.9904 11.5377 11.8773 11.3255C11.7642 11.1133 11.3011 11.332 10.8901 11.5066C10.4786 11.6815 9.21403 12.165 7.3938 12.165C5.57357 12.165 3.74303 10.8793 3.35218 10.607C2.96146 10.3344 2.82267 10.607 2.82267 10.607C2.82267 10.607 2.70463 10.8332 3.06456 11.2755C3.42409 11.7177 5.25179 13.1722 7.538 13.1722Z" fill="#11223F"/>
<path d="M0 0V16H16V0H0ZM15.0103 15.0103H0.989691V0.989691H15.0103V15.0103Z" fill="#11223F"/>
</g>
<defs>
<clipPath id="clip0_1547_1022">
<rect width="16" height="16" fill="white"/>
</clipPath>
</defs>
</svg>
