<svg width="16" height="16" viewBox="0 0 16 16" fill="none" xmlns="http://www.w3.org/2000/svg">
<path d="M11.3333 5.8667H4.66668C4.51948 5.8667 4.40001 5.9859 4.40001 6.13337C4.40001 6.28083 4.51948 6.40003 4.66668 6.40003H11.3333C11.4805 6.40003 11.6 6.28083 11.6 6.13337C11.6 5.9859 11.4805 5.8667 11.3333 5.8667Z" fill="black"/>
<path d="M4.66668 4.26661H7.33334C7.48054 4.26661 7.60001 4.14741 7.60001 3.99994C7.60001 3.85248 7.48054 3.73328 7.33334 3.73328H4.66668C4.51948 3.73328 4.40001 3.85248 4.40001 3.99994C4.40001 4.14741 4.51948 4.26661 4.66668 4.26661Z" fill="black"/>
<path d="M11.3333 8H4.66668C4.51948 8 4.40001 8.1192 4.40001 8.26667C4.40001 8.41413 4.51948 8.53333 4.66668 8.53333H11.3333C11.4805 8.53333 11.6 8.41413 11.6 8.26667C11.6 8.1192 11.4805 8 11.3333 8Z" fill="black"/>
<path d="M11.3333 10.1333H4.66668C4.51948 10.1333 4.40001 10.2525 4.40001 10.4C4.40001 10.5474 4.51948 10.6666 4.66668 10.6666H11.3333C11.4805 10.6666 11.6 10.5474 11.6 10.4C11.6 10.2525 11.4805 10.1333 11.3333 10.1333Z" fill="black"/>
<path d="M11.3333 12.2667H4.66668C4.51948 12.2667 4.40001 12.3859 4.40001 12.5334C4.40001 12.6809 4.51948 12.8001 4.66668 12.8001H11.3333C11.4805 12.8001 11.6 12.6809 11.6 12.5334C11.6 12.3859 11.4805 12.2667 11.3333 12.2667Z" fill="black"/>
<path d="M10.3771 0H1.73334V16H14.2667V3.8896L10.3771 0ZM10.5333 0.9104L13.3563 3.73333H10.5333V0.9104ZM2.26667 15.4667V0.533333H10V4.26667H13.7333V15.4667H2.26667Z" fill="black"/>
</svg>
