<svg width="16" height="16" viewBox="0 0 16 16" fill="none" xmlns="http://www.w3.org/2000/svg">
<g clip-path="url(#clip0_1547_1035)">
<path d="M14.944 2.40002C14.9446 2.32952 14.9174 2.26183 14.8683 2.21149L12.735 0.0781275C12.6848 0.0285144 12.6168 0.00114893 12.5464 0.00208897V0H2.41306C1.67701 0.000940035 1.08061 0.597237 1.07977 1.33329V14.6667C1.08061 15.4026 1.67701 15.9991 2.41306 16H13.6131C14.3491 15.9991 14.9455 15.4026 14.9464 14.6667L14.944 2.40002ZM12.8131 0.910373L14.036 2.13336H12.8131V0.910373ZM2.41306 0.533314H12.2798V2.40002C12.2798 2.54729 12.3992 2.66667 12.5464 2.66667H14.413V8.00002H1.61309V1.33329C1.61309 0.891572 1.97124 0.533314 2.41306 0.533314ZM14.413 13.8667H1.61309V8.53334H14.413V13.8667ZM13.6131 15.4666H2.41306C1.97124 15.4666 1.61309 15.1085 1.61309 14.6667V14.4H14.413V14.6667C14.413 15.1085 14.0549 15.4666 13.6131 15.4666Z" fill="black"/>
<path d="M3.47978 13.6001C4.21583 13.5991 4.81213 13.0026 4.81307 12.2667V9.06671C4.81307 8.91943 4.69368 8.80005 4.54641 8.80005C4.39914 8.80005 4.27975 8.91943 4.27975 9.06671V12.2667C4.27975 12.7085 3.92149 13.0668 3.47978 13.0668C3.03797 13.0668 2.67971 12.7085 2.67971 12.2667C2.67971 12.1194 2.56032 12 2.41305 12C2.26578 12 2.14639 12.1194 2.14639 12.2667C2.14733 13.0026 2.74363 13.5991 3.47978 13.6001Z" fill="black"/>
<path d="M5.34638 13.6001C5.49366 13.6001 5.61304 13.4807 5.61304 13.3334V11.4667H7.21308V13.3334C7.21308 13.4807 7.33247 13.6001 7.47974 13.6001C7.62701 13.6001 7.74639 13.4807 7.74639 13.3334V9.60002C7.74639 9.15831 7.38824 8.80005 6.94643 8.80005H5.8797C5.43798 8.80005 5.07973 9.15831 5.07973 9.60002V13.3334C5.07973 13.4807 5.19911 13.6001 5.34638 13.6001ZM5.61304 9.60002C5.61304 9.45275 5.73242 9.33336 5.8797 9.33336H6.94643C7.0937 9.33336 7.21308 9.45275 7.21308 9.60002V10.9334H5.61304V9.60002Z" fill="black"/>
<path d="M11.4797 13.6001C11.627 13.6001 11.7464 13.4807 11.7464 13.3334V11.4667H13.3464V13.3334C13.3464 13.4807 13.4658 13.6001 13.6131 13.6001C13.7603 13.6001 13.8797 13.4807 13.8797 13.3334V9.60002C13.8797 9.15831 13.5216 8.80005 13.0798 8.80005H12.0131C11.5713 8.80005 11.213 9.15831 11.213 9.60002V13.3334C11.213 13.4807 11.3324 13.6001 11.4797 13.6001ZM11.7464 9.60002C11.7464 9.45275 11.8658 9.33336 12.0131 9.33336H13.0798C13.227 9.33336 13.3464 9.45275 13.3464 9.60002V10.9334H11.7464V9.60002Z" fill="black"/>
<path d="M9.35438 13.3977C9.38415 13.5165 9.49079 13.5996 9.6131 13.5996C9.7353 13.5996 9.84195 13.5165 9.87182 13.3977L10.9384 9.13101C10.9639 9.03784 10.937 8.93789 10.8681 8.8702C10.7989 8.80242 10.6986 8.77735 10.6058 8.80471C10.5129 8.83218 10.4423 8.9076 10.421 9.00202L9.6131 12.2338L8.80508 9.00202C8.78377 8.9076 8.71317 8.83218 8.62031 8.80471C8.52756 8.77735 8.42729 8.80242 8.35815 8.8702C8.28911 8.93789 8.26216 9.03784 8.28764 9.13101L9.35438 13.3977Z" fill="black"/>
</g>
<defs>
<clipPath id="clip0_1547_1035">
<rect width="16" height="16" fill="white"/>
</clipPath>
</defs>
</svg>
