<svg width="16" height="16" viewBox="0 0 16 16" fill="none" xmlns="http://www.w3.org/2000/svg">
<g clip-path="url(#clip0_1547_1041)">
<path d="M14.9331 0.266724H1.06694C0.478656 0.266724 0 0.745411 0 1.33366V10.1334C0 10.2806 0.119469 10.4 0.266656 10.4H15.7333C15.8805 10.4 16 10.2806 16 10.1334V1.33366C16 0.745411 15.5213 0.266724 14.9331 0.266724ZM15.4667 9.86672H0.533344V1.33366C0.533344 1.03925 0.772812 0.800067 1.06694 0.800067H14.9331C15.2272 0.800067 15.4667 1.03925 15.4667 1.33366V9.86672Z" fill="black"/>
<path d="M15.7333 9.8667H0.266656C0.119469 9.8667 0 9.98617 0 10.1334V11.4664C0 12.0547 0.478656 12.5334 1.06694 12.5334H14.9331C15.5213 12.5334 16 12.0547 16 11.4664V10.1334C16 9.98617 15.8805 9.8667 15.7333 9.8667ZM15.4667 11.4664C15.4667 11.7609 15.2272 12 14.9331 12H1.06694C0.772812 12 0.533344 11.7609 0.533344 11.4664V10.4H15.4667V11.4664H15.4667Z" fill="black"/>
<path d="M8.80001 10.9333H7.20001C7.05282 10.9333 6.93335 11.0528 6.93335 11.2C6.93335 11.3472 7.05282 11.4667 7.20001 11.4667H8.80001C8.94719 11.4667 9.06666 11.3472 9.06666 11.2C9.06666 11.0528 8.94719 10.9333 8.80001 10.9333Z" fill="black"/>
<path d="M14.6666 1.33337H1.33334C1.18615 1.33337 1.06668 1.45284 1.06668 1.60003V10.1334C1.06668 10.2806 1.18615 10.4 1.33334 10.4H14.6667C14.8139 10.4 14.9333 10.2806 14.9333 10.1334V1.60003C14.9333 1.45284 14.8139 1.33337 14.6666 1.33337ZM14.4 9.86669H1.59999V1.86669H14.4V9.86669Z" fill="black"/>
<path d="M11.4666 14.1334H4.53334C4.09227 14.1334 3.73334 14.4924 3.73334 14.9334C3.73334 15.3745 4.09227 15.7334 4.53334 15.7334H11.4667C11.9077 15.7334 12.2667 15.3745 12.2667 14.9334C12.2667 14.4924 11.9077 14.1334 11.4666 14.1334ZM11.4666 15.2001H4.53334C4.38615 15.2001 4.26668 15.0804 4.26668 14.9334C4.26668 14.7865 4.38615 14.6668 4.53334 14.6668H11.4667C11.6139 14.6668 11.7333 14.7865 11.7333 14.9334C11.7333 15.0804 11.6139 15.2001 11.4666 15.2001Z" fill="black"/>
<path d="M10.9333 14.1333C10.0485 14.1333 9.6 13.5053 9.6 12.2667C9.6 12.1195 9.48053 12 9.33335 12H6.66669C6.5195 12 6.40003 12.1195 6.40003 12.2667C6.40003 13.5053 5.9515 14.1333 5.06669 14.1333C4.9195 14.1333 4.80003 14.2528 4.80003 14.4C4.80003 14.5472 4.9195 14.6666 5.06669 14.6666H10.9333C11.0805 14.6666 11.2 14.5472 11.2 14.4C11.2 14.2528 11.0805 14.1333 10.9333 14.1333ZM6.3656 14.1333C6.69388 13.7696 6.88719 13.228 6.92613 12.5333H9.07413C9.11278 13.228 9.30613 13.7696 9.63466 14.1333H6.3656Z" fill="black"/>
<path d="M12.7424 8.1237L12.0987 7.47998L12.4568 7.12185C12.5232 7.05545 12.5499 6.95891 12.527 6.86798C12.504 6.77704 12.435 6.70504 12.3451 6.67785L9.67842 5.87785C9.58429 5.84957 9.4827 5.87545 9.41335 5.94479C9.34376 6.01413 9.31816 6.11598 9.34641 6.20985L10.1464 8.87651C10.1734 8.96663 10.2456 9.0357 10.3365 9.05863C10.4272 9.08104 10.524 9.05488 10.5904 8.98851L10.9675 8.61117L11.6112 9.25516C11.6611 9.30529 11.7291 9.33329 11.7997 9.33329C11.8704 9.33329 11.9384 9.30529 11.9883 9.25516L12.7424 8.50076C12.8467 8.39651 12.8467 8.22798 12.7424 8.1237ZM11.7997 8.68957L11.2136 8.10316C11.1456 8.03516 11.0565 8.00129 10.9675 8.00129C10.8781 8.00129 10.7891 8.03541 10.7214 8.10288L10.5288 8.29541L9.99948 6.53088L11.764 7.06023L11.5576 7.26663C11.5008 7.3237 11.4696 7.39945 11.4696 7.47998C11.4696 7.56079 11.5011 7.63704 11.5581 7.69357L12.1768 8.31223L11.7997 8.68957Z" fill="black"/>
<path d="M11.2 2.3999H3.73335C3.58616 2.3999 3.46669 2.51937 3.46669 2.66656V3.9999C3.46669 4.14709 3.58616 4.26656 3.73335 4.26656H11.2C11.3472 4.26656 11.4667 4.14709 11.4667 3.9999V2.66656C11.4667 2.51937 11.3472 2.3999 11.2 2.3999ZM10.9334 3.73325H4V2.93325H10.9334V3.73325Z" fill="black"/>
<path d="M6.93334 5.33337H4.8C4.65281 5.33337 4.53334 5.45284 4.53334 5.60003V6.66669C4.53334 6.81387 4.65281 6.93334 4.8 6.93334H6.93334C7.08053 6.93334 7.2 6.81387 7.2 6.66669V5.60003C7.2 5.45284 7.08053 5.33337 6.93334 5.33337ZM6.66665 6.40003H5.06665V5.86669H6.66665V6.40003Z" fill="black"/>
<path d="M11.2 2.3999H3.73335C3.58616 2.3999 3.46669 2.51937 3.46669 2.66656V7.73321C3.46669 7.8804 3.58616 7.99987 3.73335 7.99987H10.0816C10.1662 7.99987 10.2454 7.96015 10.2955 7.8924C10.3459 7.82468 10.3614 7.73721 10.3371 7.6564L9.99951 6.53081L11.1235 6.86815C11.2043 6.89243 11.2918 6.87697 11.3592 6.82656C11.4269 6.77643 11.4667 6.69696 11.4667 6.61268V2.66656C11.4667 2.51937 11.3472 2.3999 11.2 2.3999ZM10.9334 6.25431L9.67813 5.87778C9.58401 5.8495 9.48241 5.87537 9.41307 5.94471C9.34348 6.01431 9.31788 6.1159 9.34613 6.21006L9.7232 7.46659H4V2.93325H10.9334V6.25431Z" fill="black"/>
</g>
<defs>
<clipPath id="clip0_1547_1041">
<rect width="16" height="16" fill="white"/>
</clipPath>
</defs>
</svg>
