<svg width="40" height="34" viewBox="0 0 40 34" fill="none" xmlns="http://www.w3.org/2000/svg">
<path d="M28.6386 13.7198C27.9045 12.9752 26.7145 12.9752 25.9803 13.7198L20.6201 19.1562C20.3548 19.0924 20.0786 19.0577 19.7942 19.0577C17.8213 19.0577 16.2162 20.6871 16.2162 22.6902C16.2162 24.693 17.8213 26.3226 19.7942 26.3226C21.7691 26.3226 23.3755 24.693 23.3755 22.6902C23.3755 22.4017 23.3413 22.1214 23.2784 21.8524L28.6385 16.416C29.3727 15.6714 29.3727 14.4643 28.6386 13.7198Z" fill="#0744F2"/>
<path d="M34.1471 5.82693C26.3473 -1.94235 13.6535 -1.94235 5.84978 5.82716C-0.885599 12.5396 -1.92935 23.1276 3.36783 31.0028C3.92689 31.8342 5.05674 32.0561 5.89127 31.4993C6.72572 30.9424 6.94892 29.8171 6.3897 28.9857C4.90135 26.7728 4.02502 24.298 3.73932 21.7798H5.44924C6.45369 21.7798 7.26806 20.9688 7.26806 19.9681C7.26806 18.9676 6.45369 18.1564 5.44924 18.1564H3.73353C4.06314 15.1469 5.22658 12.2253 7.18751 9.76794L8.42517 11.0008C8.78032 11.3546 9.24579 11.5316 9.71118 11.5316C10.1767 11.5316 10.6422 11.3546 10.9972 11.0008C11.7075 10.2934 11.7075 9.14617 10.9972 8.43863L9.75431 7.20052C12.2585 5.19705 15.2213 4.03529 18.2576 3.7142V5.42514C18.2576 6.42583 19.0719 7.23686 20.0764 7.23686C21.0809 7.23686 21.8952 6.42583 21.8952 5.42514V3.73078C24.8783 4.07404 27.7834 5.23114 30.2448 7.20122L29.0025 8.43871C28.2923 9.14632 28.2923 10.2933 29.0027 11.0011C29.3577 11.3547 29.8233 11.5316 30.2886 11.5316C30.7542 11.5316 31.2196 11.3547 31.5747 11.0008L32.8111 9.76927C34.7728 12.2262 35.9365 15.1475 36.2661 18.1566H34.5504C33.5461 18.1566 32.7316 18.9679 32.7316 19.9683C32.7316 20.969 33.5461 21.78 34.5504 21.78H36.2605C35.9747 24.2983 35.0982 26.7728 33.6093 28.9857C33.05 29.8168 33.2731 30.9423 34.1073 31.4993C34.4183 31.7069 34.7702 31.8065 35.1183 31.8065C35.7045 31.8065 36.28 31.5246 36.631 31.0033C41.9304 23.1272 40.8857 12.5392 34.1471 5.82693Z" fill="#0744F2"/>
<path d="M29.4863 30.7097H12.6758C11.6458 30.7097 10.8108 31.4463 10.8108 32.3548C10.8108 33.2635 11.6458 34 12.6758 34H29.4864C30.5165 34 31.3513 33.2635 31.3513 32.3548C31.3513 31.4463 30.5164 30.7097 29.4863 30.7097Z" fill="#0744F2"/>
</svg>
