<svg width="85" height="85" viewBox="0 0 85 85" fill="none" xmlns="http://www.w3.org/2000/svg">
<path d="M42.5 85C65.9721 85 85 65.9721 85 42.5C85 19.0279 65.9721 0 42.5 0C19.0279 0 0 19.0279 0 42.5C0 65.9721 19.0279 85 42.5 85Z" fill="url(#paint0_linear_1190_461)"/>
<path fill-rule="evenodd" clip-rule="evenodd" d="M53.6506 33.4768C53.6485 33.2846 53.5752 33.0962 53.4359 32.9548L47.7825 27.2194L47.7819 27.2189C47.6483 27.0836 47.4639 27 47.2603 27H31.5548C30.6975 27 30 27.7075 30 28.5773V57.4227C30 58.2924 30.6974 59 31.5548 59H52.0974C52.9547 59 53.6522 58.2925 53.6522 57.4227V33.4846C53.6522 33.483 53.6518 33.4816 53.6514 33.4802C53.6511 33.4791 53.6507 33.478 53.6506 33.4768ZM47.9988 29.5583L51.1306 32.7354H48.0766C48.0337 32.7354 47.9988 32.7 47.9988 32.6566V29.5583ZM52.0975 57.5015C52.1403 57.5015 52.1752 57.4661 52.1752 57.4227H52.1752V34.2339H48.0767C47.2193 34.2339 46.5218 33.5262 46.5218 32.6564V28.4985H31.5549C31.5121 28.4985 31.4772 28.5338 31.4772 28.5773V57.4227C31.4772 57.4661 31.5121 57.5015 31.5549 57.5015H52.0975Z" fill="white"/>
<path d="M53.4359 32.9548L53.7921 32.6039L53.792 32.6038L53.4359 32.9548ZM53.6506 33.4768L53.1507 33.4823L53.1509 33.5024L53.1527 33.5224L53.6506 33.4768ZM47.7825 27.2194L48.1386 26.8684L48.1111 26.8405L48.0795 26.8172L47.7825 27.2194ZM47.7819 27.2189L47.4259 27.5701L47.4534 27.5979L47.4848 27.6212L47.7819 27.2189ZM53.6522 33.4846L53.1527 33.4619L53.1522 33.4732V33.4846H53.6522ZM53.6514 33.4802L53.1723 33.6232L53.1723 33.6234L53.6514 33.4802ZM51.1306 32.7354V33.2354H52.3255L51.4866 32.3844L51.1306 32.7354ZM47.9988 29.5583L48.3549 29.2073L47.4988 28.3388V29.5583H47.9988ZM52.1752 57.4227V56.9227H51.6752V57.4227H52.1752ZM52.1752 57.4227V57.9227H52.6752V57.4227H52.1752ZM52.1752 34.2339H52.6752V33.7339H52.1752V34.2339ZM46.5218 28.4985H47.0218V27.9985H46.5218V28.4985ZM53.0798 33.3057C53.1236 33.3502 53.1499 33.4127 53.1507 33.4823L54.1506 33.4714C54.1472 33.1564 54.0268 32.8422 53.7921 32.6039L53.0798 33.3057ZM47.4264 27.5704L53.0798 33.3058L53.792 32.6038L48.1386 26.8684L47.4264 27.5704ZM47.4848 27.6212L47.4855 27.6217L48.0795 26.8172L48.0789 26.8167L47.4848 27.6212ZM47.2603 27.5C47.3238 27.5 47.3819 27.5254 47.4259 27.5701L48.1378 26.8678C47.9148 26.6418 47.604 26.5 47.2603 26.5V27.5ZM31.5548 27.5H47.2603V26.5H31.5548V27.5ZM30.5 28.5773C30.5 27.9769 30.9803 27.5 31.5548 27.5V26.5C30.4146 26.5 29.5 27.4381 29.5 28.5773H30.5ZM30.5 57.4227V28.5773H29.5V57.4227H30.5ZM31.5548 58.5C30.9803 58.5 30.5 58.0231 30.5 57.4227H29.5C29.5 58.5618 30.4145 59.5 31.5548 59.5V58.5ZM52.0974 58.5H31.5548V59.5H52.0974V58.5ZM53.1522 57.4227C53.1522 58.0231 52.6718 58.5 52.0974 58.5V59.5C53.2376 59.5 54.1522 58.5618 54.1522 57.4227H53.1522ZM53.1522 33.4846V57.4227H54.1522V33.4846H53.1522ZM53.1723 33.6234C53.1736 33.6276 53.1673 33.6076 53.1623 33.5836C53.1566 33.5561 53.1503 33.5138 53.1527 33.4619L54.1517 33.5072C54.1541 33.4538 54.1476 33.41 54.1416 33.3811C54.1387 33.3669 54.1357 33.3555 54.1337 33.3484C54.1327 33.3448 54.1319 33.3419 54.1314 33.3401C54.1311 33.3392 54.1309 33.3384 54.1307 33.3379C54.1306 33.3374 54.1305 33.337 54.1304 33.337L53.1723 33.6234ZM53.1527 33.5224C53.1557 33.5548 53.1612 33.5809 53.1652 33.5973C53.1673 33.6056 53.1691 33.6123 53.1703 33.6164C53.1709 33.6185 53.1714 33.6203 53.1717 33.6214C53.1719 33.6219 53.172 33.6224 53.1721 33.6227C53.1722 33.6229 53.1723 33.6232 53.1723 33.6232L54.1305 33.3371C54.1297 33.3345 54.1332 33.346 54.1366 33.3597C54.1404 33.375 54.1457 33.4 54.1485 33.4312L53.1527 33.5224ZM51.4866 32.3844L48.3549 29.2073L47.6427 29.9093L50.7745 33.0864L51.4866 32.3844ZM48.0766 33.2354H51.1306V32.2354H48.0766V33.2354ZM47.4988 32.6566C47.4988 32.9693 47.7508 33.2354 48.0766 33.2354V32.2354C48.3166 32.2354 48.4988 32.4307 48.4988 32.6566H47.4988ZM47.4988 29.5583V32.6566H48.4988V29.5583H47.4988ZM51.6752 57.4227C51.6752 57.1968 51.8574 57.0015 52.0975 57.0015V58.0015C52.4232 58.0015 52.6752 57.7355 52.6752 57.4227H51.6752ZM52.1752 56.9227H52.1752V57.9227H52.1752V56.9227ZM51.6752 34.2339V57.4227H52.6752V34.2339H51.6752ZM48.0767 34.7339H52.1752V33.7339H48.0767V34.7339ZM46.0218 32.6564C46.0218 33.7955 46.9364 34.7339 48.0767 34.7339V33.7339C47.5022 33.7339 47.0218 33.2568 47.0218 32.6564H46.0218ZM46.0218 28.4985V32.6564H47.0218V28.4985H46.0218ZM31.5549 28.9985H46.5218V27.9985H31.5549V28.9985ZM31.9772 28.5773C31.9772 28.8032 31.795 28.9985 31.5549 28.9985V27.9985C31.2292 27.9985 30.9772 28.2645 30.9772 28.5773H31.9772ZM31.9772 57.4227V28.5773H30.9772V57.4227H31.9772ZM31.5549 57.0015C31.7949 57.0015 31.9772 57.1968 31.9772 57.4227H30.9772C30.9772 57.7355 31.2292 58.0015 31.5549 58.0015V57.0015ZM52.0975 57.0015H31.5549V58.0015H52.0975V57.0015Z" fill="white"/>
<path d="M47.3808 36.7391H34.8802C34.4902 36.7391 34.174 37.0506 34.174 37.4348C34.174 37.8189 34.4902 38.1304 34.8802 38.1304H47.3807C47.7707 38.1304 48.087 37.8189 48.087 37.4348C48.0871 37.0506 47.7707 36.7391 47.3808 36.7391Z" fill="white"/>
<path d="M47.3808 42.3044H34.8802C34.4902 42.3044 34.174 42.6159 34.174 43C34.174 43.3842 34.4902 43.6957 34.8802 43.6957H47.3807C47.7707 43.6957 48.087 43.3842 48.087 43C48.0871 42.6159 47.7707 42.3044 47.3808 42.3044Z" fill="white"/>
<path d="M47.3808 46.4782H34.8802C34.4902 46.4782 34.174 46.7897 34.174 47.1739C34.174 47.5581 34.4902 47.8695 34.8802 47.8695H47.3807C47.7707 47.8695 48.087 47.5581 48.087 47.1739C48.0871 46.7898 47.7707 46.4782 47.3808 46.4782Z" fill="white"/>
<path d="M41.7524 50.6522H34.9434C34.5185 50.6522 34.174 50.9637 34.174 51.3479C34.174 51.7321 34.5185 52.0435 34.9434 52.0435H41.7524C42.1772 52.0435 42.5218 51.7321 42.5218 51.3479C42.5218 50.9637 42.1772 50.6522 41.7524 50.6522Z" fill="white"/>
<defs>
<linearGradient id="paint0_linear_1190_461" x1="-9.44113" y1="35.6786" x2="38.2177" y2="94.6409" gradientUnits="userSpaceOnUse">
<stop stop-color="#4B91F9"/>
<stop offset="1" stop-color="#0744F2"/>
</linearGradient>
</defs>
</svg>
