<svg width="91" height="24" viewBox="0 0 91 24" fill="none" xmlns="http://www.w3.org/2000/svg">
<mask id="mask0_4377_1183" style="mask-type:luminance" maskUnits="userSpaceOnUse" x="0" y="0" width="30" height="24">
<path fill-rule="evenodd" clip-rule="evenodd" d="M0 24H30V0H0V24Z" fill="white"/>
</mask>
<g mask="url(#mask0_4377_1183)">
<path fill-rule="evenodd" clip-rule="evenodd" d="M30.0002 2.84184C28.8962 3.32385 27.7097 3.64963 26.4644 3.79614C27.7355 3.04606 28.7116 1.85836 29.1712 0.443224C27.9818 1.13767 26.6643 1.64205 25.262 1.9139C24.139 0.736041 22.539 0 20.7684 0C17.3685 0 14.612 2.71348 14.612 6.06035C14.612 6.53534 14.6666 6.9979 14.7715 7.44145C9.65505 7.18872 5.11889 4.77595 2.08256 1.10936C1.55265 2.00445 1.24906 3.04552 1.24906 4.15617C1.24906 6.25873 2.33599 8.11374 3.98784 9.20051C2.97862 9.16907 2.02943 8.89646 1.19934 8.44254C1.1989 8.46782 1.1989 8.49321 1.1989 8.51871C1.1989 11.4551 3.32095 13.9046 6.13722 14.4613C5.62059 14.5998 5.07674 14.6738 4.51522 14.6738C4.11856 14.6738 3.73287 14.6359 3.35706 14.5651C4.1404 16.9729 6.41391 18.7251 9.1078 18.774C7.0009 20.3994 4.34641 21.3683 1.46221 21.3683C0.965335 21.3683 0.475268 21.3397 -0.00634766 21.2837C2.71805 23.0032 5.95403 24.0065 9.4306 24.0065C20.7541 24.0065 26.9461 14.7717 26.9461 6.76311C26.9461 6.50033 26.9402 6.23895 26.9284 5.97909C28.1311 5.12463 29.1749 4.05719 30.0002 2.84184Z" fill="white"/>
</g>
<mask id="mask1_4377_1183" style="mask-type:luminance" maskUnits="userSpaceOnUse" x="67" y="0" width="24" height="24">
<path fill-rule="evenodd" clip-rule="evenodd" d="M67 24H90.9999V0H67V24Z" fill="white"/>
</mask>
<g mask="url(#mask1_4377_1183)">
<path fill-rule="evenodd" clip-rule="evenodd" d="M89.6754 0H68.3246C67.593 0 67 0.592953 67 1.32457V22.6754C67 23.4069 67.593 24 68.3246 24H79.8192V14.7059H76.6915V11.0838H79.8192V8.41267C79.8192 5.31284 81.7124 3.62489 84.4777 3.62489C85.8024 3.62489 86.9408 3.72345 87.2725 3.76751V7.00708L85.3547 7.00798C83.8508 7.00798 83.5595 7.7226 83.5595 8.77128V11.0838H87.1463L86.6793 14.7059H83.5595V24H89.6754C90.4069 24 90.9999 23.4069 90.9999 22.6754V1.32457C90.9999 0.592953 90.4069 0 89.6754 0Z" fill="white"/>
</g>
</svg>
