<svg width="158" height="73" viewBox="0 0 158 73" fill="none" xmlns="http://www.w3.org/2000/svg">
<path fill-rule="evenodd" clip-rule="evenodd" d="M4.77419 2.39344C4.77419 3.71546 3.70561 4.78689 2.38607 4.78689C1.06859 4.78689 0 3.71546 0 2.39344C0 1.07143 1.06859 0 2.38607 0C3.70561 0 4.77419 1.07143 4.77419 2.39344Z" fill="#22D7DA"/>
<path fill-rule="evenodd" clip-rule="evenodd" d="M19.0968 2.39344C19.0968 3.71546 18.0282 4.78689 16.7092 4.78689C15.3912 4.78689 14.3226 3.71546 14.3226 2.39344C14.3226 1.07143 15.3912 0 16.7092 0C18.0282 0 19.0968 1.07143 19.0968 2.39344Z" fill="#22D7DA"/>
<path fill-rule="evenodd" clip-rule="evenodd" d="M32.2258 2.39344C32.2258 3.71546 31.157 4.78689 29.8387 4.78689C28.5199 4.78689 27.4516 3.71546 27.4516 2.39344C27.4516 1.07143 28.5199 0 29.8387 0C31.157 0 32.2258 1.07143 32.2258 2.39344Z" fill="#22D7DA"/>
<path fill-rule="evenodd" clip-rule="evenodd" d="M46.5484 2.39344C46.5484 3.71546 45.4795 4.78689 44.1602 4.78689C42.842 4.78689 41.7742 3.71546 41.7742 2.39344C41.7742 1.07143 42.842 0 44.1602 0C45.4795 0 46.5484 1.07143 46.5484 2.39344Z" fill="#22D7DA"/>
<path fill-rule="evenodd" clip-rule="evenodd" d="M59.6774 2.39344C59.6774 3.71546 58.6093 4.78689 57.2898 4.78689C55.9718 4.78689 54.9032 3.71546 54.9032 2.39344C54.9032 1.07143 55.9718 0 57.2898 0C58.6093 0 59.6774 1.07143 59.6774 2.39344Z" fill="#22D7DA"/>
<path fill-rule="evenodd" clip-rule="evenodd" d="M4.77419 15.5574C4.77419 16.8794 3.70561 17.9508 2.38607 17.9508C1.06859 17.9508 0 16.8794 0 15.5574C0 14.2359 1.06859 13.1639 2.38607 13.1639C3.70561 13.1639 4.77419 14.2359 4.77419 15.5574Z" fill="#22D7DA"/>
<path fill-rule="evenodd" clip-rule="evenodd" d="M19.0968 15.5574C19.0968 16.8794 18.0282 17.9508 16.7092 17.9508C15.3912 17.9508 14.3226 16.8794 14.3226 15.5574C14.3226 14.2359 15.3912 13.1639 16.7092 13.1639C18.0282 13.1639 19.0968 14.2359 19.0968 15.5574Z" fill="#22D7DA"/>
<path fill-rule="evenodd" clip-rule="evenodd" d="M32.2258 15.5574C32.2258 16.8794 31.157 17.9508 29.8387 17.9508C28.5199 17.9508 27.4516 16.8794 27.4516 15.5574C27.4516 14.2359 28.5199 13.1639 29.8387 13.1639C31.157 13.1639 32.2258 14.2359 32.2258 15.5574Z" fill="#22D7DA"/>
<path fill-rule="evenodd" clip-rule="evenodd" d="M46.5484 15.5574C46.5484 16.8794 45.4795 17.9508 44.1602 17.9508C42.842 17.9508 41.7742 16.8794 41.7742 15.5574C41.7742 14.2359 42.842 13.1639 44.1602 13.1639C45.4795 13.1639 46.5484 14.2359 46.5484 15.5574Z" fill="#22D7DA"/>
<path fill-rule="evenodd" clip-rule="evenodd" d="M59.6774 15.5574C59.6774 16.8794 58.6093 17.9508 57.2898 17.9508C55.9718 17.9508 54.9032 16.8794 54.9032 15.5574C54.9032 14.2359 55.9718 13.1639 57.2898 13.1639C58.6093 13.1639 59.6774 14.2359 59.6774 15.5574Z" fill="#22D7DA"/>
<path fill-rule="evenodd" clip-rule="evenodd" d="M4.77419 30.5167C4.77419 32.1684 3.70561 33.5081 2.38607 33.5081C1.06859 33.5081 0 32.1684 0 30.5167C0 28.8643 1.06859 27.5245 2.38607 27.5245C3.70561 27.5245 4.77419 28.8643 4.77419 30.5167Z" fill="#22D7DA"/>
<path fill-rule="evenodd" clip-rule="evenodd" d="M19.0968 30.5167C19.0968 32.1684 18.0282 33.5081 16.7092 33.5081C15.3912 33.5081 14.3226 32.1684 14.3226 30.5167C14.3226 28.8643 15.3912 27.5245 16.7092 27.5245C18.0282 27.5245 19.0968 28.8643 19.0968 30.5167Z" fill="#22D7DA"/>
<path fill-rule="evenodd" clip-rule="evenodd" d="M32.2258 30.5167C32.2258 32.1684 31.157 33.5081 29.8387 33.5081C28.5199 33.5081 27.4516 32.1684 27.4516 30.5167C27.4516 28.8643 28.5199 27.5245 29.8387 27.5245C31.157 27.5245 32.2258 28.8643 32.2258 30.5167Z" fill="#22D7DA"/>
<path fill-rule="evenodd" clip-rule="evenodd" d="M46.5484 30.5167C46.5484 32.1684 45.4795 33.5081 44.1602 33.5081C42.842 33.5081 41.7742 32.1684 41.7742 30.5167C41.7742 28.8643 42.842 27.5245 44.1602 27.5245C45.4795 27.5245 46.5484 28.8643 46.5484 30.5167Z" fill="#22D7DA"/>
<path fill-rule="evenodd" clip-rule="evenodd" d="M59.6774 30.5167C59.6774 32.1684 58.6093 33.5081 57.2898 33.5081C55.9718 33.5081 54.9032 32.1684 54.9032 30.5167C54.9032 28.8643 55.9718 27.5245 57.2898 27.5245C58.6093 27.5245 59.6774 28.8643 59.6774 30.5167Z" fill="#22D7DA"/>
<path fill-rule="evenodd" clip-rule="evenodd" d="M4.77419 43.68C4.77419 45.3323 3.70561 46.6721 2.38607 46.6721C1.06859 46.6721 0 45.3323 0 43.68C0 42.0283 1.06859 40.6885 2.38607 40.6885C3.70561 40.6885 4.77419 42.0283 4.77419 43.68Z" fill="#22D7DA"/>
<path fill-rule="evenodd" clip-rule="evenodd" d="M19.0968 43.68C19.0968 45.3323 18.0282 46.6721 16.7092 46.6721C15.3912 46.6721 14.3226 45.3323 14.3226 43.68C14.3226 42.0283 15.3912 40.6885 16.7092 40.6885C18.0282 40.6885 19.0968 42.0283 19.0968 43.68Z" fill="#22D7DA"/>
<path fill-rule="evenodd" clip-rule="evenodd" d="M32.2258 43.68C32.2258 45.3323 31.157 46.6721 29.8387 46.6721C28.5199 46.6721 27.4516 45.3323 27.4516 43.68C27.4516 42.0283 28.5199 40.6885 29.8387 40.6885C31.157 40.6885 32.2258 42.0283 32.2258 43.68Z" fill="#22D7DA"/>
<path fill-rule="evenodd" clip-rule="evenodd" d="M46.5484 43.68C46.5484 45.3323 45.4795 46.6721 44.1602 46.6721C42.842 46.6721 41.7742 45.3323 41.7742 43.68C41.7742 42.0283 42.842 40.6885 44.1602 40.6885C45.4795 40.6885 46.5484 42.0283 46.5484 43.68Z" fill="#22D7DA"/>
<path fill-rule="evenodd" clip-rule="evenodd" d="M59.6774 43.68C59.6774 45.3323 58.6093 46.6721 57.2898 46.6721C55.9718 46.6721 54.9032 45.3323 54.9032 43.68C54.9032 42.0283 55.9718 40.6885 57.2898 40.6885C58.6093 40.6885 59.6774 42.0283 59.6774 43.68Z" fill="#22D7DA"/>
<path fill-rule="evenodd" clip-rule="evenodd" d="M4.77419 57.4426C4.77419 58.7641 3.70561 59.8361 2.38607 59.8361C1.06859 59.8361 0 58.7641 0 57.4426C0 56.1206 1.06859 55.0492 2.38607 55.0492C3.70561 55.0492 4.77419 56.1206 4.77419 57.4426Z" fill="#22D7DA"/>
<path fill-rule="evenodd" clip-rule="evenodd" d="M19.0968 57.4426C19.0968 58.7641 18.0282 59.8361 16.7092 59.8361C15.3912 59.8361 14.3226 58.7641 14.3226 57.4426C14.3226 56.1206 15.3912 55.0492 16.7092 55.0492C18.0282 55.0492 19.0968 56.1206 19.0968 57.4426Z" fill="#22D7DA"/>
<path fill-rule="evenodd" clip-rule="evenodd" d="M32.2258 57.4426C32.2258 58.7641 31.157 59.8361 29.8387 59.8361C28.5199 59.8361 27.4516 58.7641 27.4516 57.4426C27.4516 56.1206 28.5199 55.0492 29.8387 55.0492C31.157 55.0492 32.2258 56.1206 32.2258 57.4426Z" fill="#22D7DA"/>
<path fill-rule="evenodd" clip-rule="evenodd" d="M46.5484 57.4426C46.5484 58.7641 45.4795 59.8361 44.1602 59.8361C42.842 59.8361 41.7742 58.7641 41.7742 57.4426C41.7742 56.1206 42.842 55.0492 44.1602 55.0492C45.4795 55.0492 46.5484 56.1206 46.5484 57.4426Z" fill="#22D7DA"/>
<path fill-rule="evenodd" clip-rule="evenodd" d="M59.6774 57.4426C59.6774 58.7641 58.6093 59.8361 57.2898 59.8361C55.9718 59.8361 54.9032 58.7641 54.9032 57.4426C54.9032 56.1206 55.9718 55.0492 57.2898 55.0492C58.6093 55.0492 59.6774 56.1206 59.6774 57.4426Z" fill="#22D7DA"/>
<path fill-rule="evenodd" clip-rule="evenodd" d="M4.77419 70.6066C4.77419 71.9286 3.70561 73 2.38607 73C1.06859 73 0 71.9286 0 70.6066C0 69.2846 1.06859 68.2131 2.38607 68.2131C3.70561 68.2131 4.77419 69.2846 4.77419 70.6066Z" fill="#22D7DA"/>
<path fill-rule="evenodd" clip-rule="evenodd" d="M19.0968 70.6066C19.0968 71.9286 18.0282 73 16.7092 73C15.3912 73 14.3226 71.9286 14.3226 70.6066C14.3226 69.2846 15.3912 68.2131 16.7092 68.2131C18.0282 68.2131 19.0968 69.2846 19.0968 70.6066Z" fill="#22D7DA"/>
<path fill-rule="evenodd" clip-rule="evenodd" d="M32.2258 70.6066C32.2258 71.9286 31.157 73 29.8387 73C28.5199 73 27.4516 71.9286 27.4516 70.6066C27.4516 69.2846 28.5199 68.2131 29.8387 68.2131C31.157 68.2131 32.2258 69.2846 32.2258 70.6066Z" fill="#22D7DA"/>
<path fill-rule="evenodd" clip-rule="evenodd" d="M46.5484 70.6066C46.5484 71.9286 45.4795 73 44.1602 73C42.842 73 41.7742 71.9286 41.7742 70.6066C41.7742 69.2846 42.842 68.2131 44.1602 68.2131C45.4795 68.2131 46.5484 69.2846 46.5484 70.6066Z" fill="#22D7DA"/>
<path fill-rule="evenodd" clip-rule="evenodd" d="M59.6774 70.6066C59.6774 71.9286 58.6093 73 57.2898 73C55.9718 73 54.9032 71.9286 54.9032 70.6066C54.9032 69.2846 55.9718 68.2131 57.2898 68.2131C58.6093 68.2131 59.6774 69.2846 59.6774 70.6066Z" fill="#22D7DA"/>
<path fill-rule="evenodd" clip-rule="evenodd" d="M74 2.39344C74 3.71546 72.9319 4.78689 71.6124 4.78689C70.2944 4.78689 69.2258 3.71546 69.2258 2.39344C69.2258 1.07143 70.2944 0 71.6124 0C72.9319 0 74 1.07143 74 2.39344Z" fill="#22D7DA"/>
<path fill-rule="evenodd" clip-rule="evenodd" d="M74 15.5574C74 16.8794 72.9319 17.9508 71.6124 17.9508C70.2944 17.9508 69.2258 16.8794 69.2258 15.5574C69.2258 14.2359 70.2944 13.1639 71.6124 13.1639C72.9319 13.1639 74 14.2359 74 15.5574Z" fill="#22D7DA"/>
<path fill-rule="evenodd" clip-rule="evenodd" d="M74 30.5167C74 32.1684 72.9319 33.5081 71.6124 33.5081C70.2944 33.5081 69.2258 32.1684 69.2258 30.5167C69.2258 28.8643 70.2944 27.5245 71.6124 27.5245C72.9319 27.5245 74 28.8643 74 30.5167Z" fill="#22D7DA"/>
<path fill-rule="evenodd" clip-rule="evenodd" d="M74 43.68C74 45.3323 72.9319 46.6721 71.6124 46.6721C70.2944 46.6721 69.2258 45.3323 69.2258 43.68C69.2258 42.0283 70.2944 40.6885 71.6124 40.6885C72.9319 40.6885 74 42.0283 74 43.68Z" fill="#22D7DA"/>
<path fill-rule="evenodd" clip-rule="evenodd" d="M74 57.4426C74 58.7641 72.9319 59.8361 71.6124 59.8361C70.2944 59.8361 69.2258 58.7641 69.2258 57.4426C69.2258 56.1206 70.2944 55.0492 71.6124 55.0492C72.9319 55.0492 74 56.1206 74 57.4426Z" fill="#22D7DA"/>
<path fill-rule="evenodd" clip-rule="evenodd" d="M74 70.6066C74 71.9286 72.9319 73 71.6124 73C70.2944 73 69.2258 71.9286 69.2258 70.6066C69.2258 69.2846 70.2944 68.2131 71.6124 68.2131C72.9319 68.2131 74 69.2846 74 70.6066Z" fill="#22D7DA"/>
<path fill-rule="evenodd" clip-rule="evenodd" d="M88.7742 2.39344C88.7742 3.71546 87.7056 4.78689 86.3861 4.78689C85.0686 4.78689 84 3.71546 84 2.39344C84 1.07143 85.0686 0 86.3861 0C87.7056 0 88.7742 1.07143 88.7742 2.39344Z" fill="#22D7DA"/>
<path fill-rule="evenodd" clip-rule="evenodd" d="M103.097 2.39344C103.097 3.71546 102.028 4.78689 100.709 4.78689C99.3912 4.78689 98.3226 3.71546 98.3226 2.39344C98.3226 1.07143 99.3912 0 100.709 0C102.028 0 103.097 1.07143 103.097 2.39344Z" fill="#22D7DA"/>
<path fill-rule="evenodd" clip-rule="evenodd" d="M116.226 2.39344C116.226 3.71546 115.157 4.78689 113.839 4.78689C112.52 4.78689 111.452 3.71546 111.452 2.39344C111.452 1.07143 112.52 0 113.839 0C115.157 0 116.226 1.07143 116.226 2.39344Z" fill="#22D7DA"/>
<path fill-rule="evenodd" clip-rule="evenodd" d="M130.548 2.39344C130.548 3.71546 129.48 4.78689 128.16 4.78689C126.842 4.78689 125.774 3.71546 125.774 2.39344C125.774 1.07143 126.842 0 128.16 0C129.48 0 130.548 1.07143 130.548 2.39344Z" fill="#22D7DA"/>
<path fill-rule="evenodd" clip-rule="evenodd" d="M143.677 2.39344C143.677 3.71546 142.609 4.78689 141.29 4.78689C139.972 4.78689 138.903 3.71546 138.903 2.39344C138.903 1.07143 139.972 0 141.29 0C142.609 0 143.677 1.07143 143.677 2.39344Z" fill="#22D7DA"/>
<path fill-rule="evenodd" clip-rule="evenodd" d="M88.7742 15.5574C88.7742 16.8794 87.7056 17.9508 86.3861 17.9508C85.0686 17.9508 84 16.8794 84 15.5574C84 14.2359 85.0686 13.1639 86.3861 13.1639C87.7056 13.1639 88.7742 14.2359 88.7742 15.5574Z" fill="#22D7DA"/>
<path fill-rule="evenodd" clip-rule="evenodd" d="M103.097 15.5574C103.097 16.8794 102.028 17.9508 100.709 17.9508C99.3912 17.9508 98.3226 16.8794 98.3226 15.5574C98.3226 14.2359 99.3912 13.1639 100.709 13.1639C102.028 13.1639 103.097 14.2359 103.097 15.5574Z" fill="#22D7DA"/>
<path fill-rule="evenodd" clip-rule="evenodd" d="M116.226 15.5574C116.226 16.8794 115.157 17.9508 113.839 17.9508C112.52 17.9508 111.452 16.8794 111.452 15.5574C111.452 14.2359 112.52 13.1639 113.839 13.1639C115.157 13.1639 116.226 14.2359 116.226 15.5574Z" fill="#22D7DA"/>
<path fill-rule="evenodd" clip-rule="evenodd" d="M130.548 15.5574C130.548 16.8794 129.48 17.9508 128.16 17.9508C126.842 17.9508 125.774 16.8794 125.774 15.5574C125.774 14.2359 126.842 13.1639 128.16 13.1639C129.48 13.1639 130.548 14.2359 130.548 15.5574Z" fill="#22D7DA"/>
<path fill-rule="evenodd" clip-rule="evenodd" d="M143.677 15.5574C143.677 16.8794 142.609 17.9508 141.29 17.9508C139.972 17.9508 138.903 16.8794 138.903 15.5574C138.903 14.2359 139.972 13.1639 141.29 13.1639C142.609 13.1639 143.677 14.2359 143.677 15.5574Z" fill="#22D7DA"/>
<path fill-rule="evenodd" clip-rule="evenodd" d="M88.7742 30.5167C88.7742 32.1684 87.7056 33.5081 86.3861 33.5081C85.0686 33.5081 84 32.1684 84 30.5167C84 28.8643 85.0686 27.5245 86.3861 27.5245C87.7056 27.5245 88.7742 28.8643 88.7742 30.5167Z" fill="#22D7DA"/>
<path fill-rule="evenodd" clip-rule="evenodd" d="M103.097 30.5167C103.097 32.1684 102.028 33.5081 100.709 33.5081C99.3912 33.5081 98.3226 32.1684 98.3226 30.5167C98.3226 28.8643 99.3912 27.5245 100.709 27.5245C102.028 27.5245 103.097 28.8643 103.097 30.5167Z" fill="#22D7DA"/>
<path fill-rule="evenodd" clip-rule="evenodd" d="M116.226 30.5167C116.226 32.1684 115.157 33.5081 113.839 33.5081C112.52 33.5081 111.452 32.1684 111.452 30.5167C111.452 28.8643 112.52 27.5245 113.839 27.5245C115.157 27.5245 116.226 28.8643 116.226 30.5167Z" fill="#22D7DA"/>
<path fill-rule="evenodd" clip-rule="evenodd" d="M130.548 30.5167C130.548 32.1684 129.48 33.5081 128.16 33.5081C126.842 33.5081 125.774 32.1684 125.774 30.5167C125.774 28.8643 126.842 27.5245 128.16 27.5245C129.48 27.5245 130.548 28.8643 130.548 30.5167Z" fill="#22D7DA"/>
<path fill-rule="evenodd" clip-rule="evenodd" d="M143.677 30.5167C143.677 32.1684 142.609 33.5081 141.29 33.5081C139.972 33.5081 138.903 32.1684 138.903 30.5167C138.903 28.8643 139.972 27.5245 141.29 27.5245C142.609 27.5245 143.677 28.8643 143.677 30.5167Z" fill="#22D7DA"/>
<path fill-rule="evenodd" clip-rule="evenodd" d="M88.7742 43.68C88.7742 45.3323 87.7056 46.6721 86.3861 46.6721C85.0686 46.6721 84 45.3323 84 43.68C84 42.0283 85.0686 40.6885 86.3861 40.6885C87.7056 40.6885 88.7742 42.0283 88.7742 43.68Z" fill="#22D7DA"/>
<path fill-rule="evenodd" clip-rule="evenodd" d="M103.097 43.68C103.097 45.3323 102.028 46.6721 100.709 46.6721C99.3912 46.6721 98.3226 45.3323 98.3226 43.68C98.3226 42.0283 99.3912 40.6885 100.709 40.6885C102.028 40.6885 103.097 42.0283 103.097 43.68Z" fill="#22D7DA"/>
<path fill-rule="evenodd" clip-rule="evenodd" d="M116.226 43.68C116.226 45.3323 115.157 46.6721 113.839 46.6721C112.52 46.6721 111.452 45.3323 111.452 43.68C111.452 42.0283 112.52 40.6885 113.839 40.6885C115.157 40.6885 116.226 42.0283 116.226 43.68Z" fill="#22D7DA"/>
<path fill-rule="evenodd" clip-rule="evenodd" d="M130.548 43.68C130.548 45.3323 129.48 46.6721 128.16 46.6721C126.842 46.6721 125.774 45.3323 125.774 43.68C125.774 42.0283 126.842 40.6885 128.16 40.6885C129.48 40.6885 130.548 42.0283 130.548 43.68Z" fill="#22D7DA"/>
<path fill-rule="evenodd" clip-rule="evenodd" d="M143.677 43.68C143.677 45.3323 142.609 46.6721 141.29 46.6721C139.972 46.6721 138.903 45.3323 138.903 43.68C138.903 42.0283 139.972 40.6885 141.29 40.6885C142.609 40.6885 143.677 42.0283 143.677 43.68Z" fill="#22D7DA"/>
<path fill-rule="evenodd" clip-rule="evenodd" d="M88.7742 57.4426C88.7742 58.7641 87.7056 59.8361 86.3861 59.8361C85.0686 59.8361 84 58.7641 84 57.4426C84 56.1206 85.0686 55.0492 86.3861 55.0492C87.7056 55.0492 88.7742 56.1206 88.7742 57.4426Z" fill="#22D7DA"/>
<path fill-rule="evenodd" clip-rule="evenodd" d="M103.097 57.4426C103.097 58.7641 102.028 59.8361 100.709 59.8361C99.3912 59.8361 98.3226 58.7641 98.3226 57.4426C98.3226 56.1206 99.3912 55.0492 100.709 55.0492C102.028 55.0492 103.097 56.1206 103.097 57.4426Z" fill="#22D7DA"/>
<path fill-rule="evenodd" clip-rule="evenodd" d="M116.226 57.4426C116.226 58.7641 115.157 59.8361 113.839 59.8361C112.52 59.8361 111.452 58.7641 111.452 57.4426C111.452 56.1206 112.52 55.0492 113.839 55.0492C115.157 55.0492 116.226 56.1206 116.226 57.4426Z" fill="#22D7DA"/>
<path fill-rule="evenodd" clip-rule="evenodd" d="M130.548 57.4426C130.548 58.7641 129.48 59.8361 128.16 59.8361C126.842 59.8361 125.774 58.7641 125.774 57.4426C125.774 56.1206 126.842 55.0492 128.16 55.0492C129.48 55.0492 130.548 56.1206 130.548 57.4426Z" fill="#22D7DA"/>
<path fill-rule="evenodd" clip-rule="evenodd" d="M143.677 57.4426C143.677 58.7641 142.609 59.8361 141.29 59.8361C139.972 59.8361 138.903 58.7641 138.903 57.4426C138.903 56.1206 139.972 55.0492 141.29 55.0492C142.609 55.0492 143.677 56.1206 143.677 57.4426Z" fill="#22D7DA"/>
<path fill-rule="evenodd" clip-rule="evenodd" d="M88.7742 70.6066C88.7742 71.9286 87.7056 73 86.3861 73C85.0686 73 84 71.9286 84 70.6066C84 69.2846 85.0686 68.2131 86.3861 68.2131C87.7056 68.2131 88.7742 69.2846 88.7742 70.6066Z" fill="#22D7DA"/>
<path fill-rule="evenodd" clip-rule="evenodd" d="M103.097 70.6066C103.097 71.9286 102.028 73 100.709 73C99.3912 73 98.3226 71.9286 98.3226 70.6066C98.3226 69.2846 99.3912 68.2131 100.709 68.2131C102.028 68.2131 103.097 69.2846 103.097 70.6066Z" fill="#22D7DA"/>
<path fill-rule="evenodd" clip-rule="evenodd" d="M116.226 70.6066C116.226 71.9286 115.157 73 113.839 73C112.52 73 111.452 71.9286 111.452 70.6066C111.452 69.2846 112.52 68.2131 113.839 68.2131C115.157 68.2131 116.226 69.2846 116.226 70.6066Z" fill="#22D7DA"/>
<path fill-rule="evenodd" clip-rule="evenodd" d="M130.548 70.6066C130.548 71.9286 129.48 73 128.16 73C126.842 73 125.774 71.9286 125.774 70.6066C125.774 69.2846 126.842 68.2131 128.16 68.2131C129.48 68.2131 130.548 69.2846 130.548 70.6066Z" fill="#22D7DA"/>
<path fill-rule="evenodd" clip-rule="evenodd" d="M143.677 70.6066C143.677 71.9286 142.609 73 141.29 73C139.972 73 138.903 71.9286 138.903 70.6066C138.903 69.2846 139.972 68.2131 141.29 68.2131C142.609 68.2131 143.677 69.2846 143.677 70.6066Z" fill="#22D7DA"/>
<path fill-rule="evenodd" clip-rule="evenodd" d="M158 2.39344C158 3.71546 156.932 4.78689 155.612 4.78689C154.294 4.78689 153.226 3.71546 153.226 2.39344C153.226 1.07143 154.294 0 155.612 0C156.932 0 158 1.07143 158 2.39344Z" fill="#22D7DA"/>
<path fill-rule="evenodd" clip-rule="evenodd" d="M158 15.5574C158 16.8794 156.932 17.9508 155.612 17.9508C154.294 17.9508 153.226 16.8794 153.226 15.5574C153.226 14.2359 154.294 13.1639 155.612 13.1639C156.932 13.1639 158 14.2359 158 15.5574Z" fill="#22D7DA"/>
<path fill-rule="evenodd" clip-rule="evenodd" d="M158 30.5167C158 32.1684 156.932 33.5081 155.612 33.5081C154.294 33.5081 153.226 32.1684 153.226 30.5167C153.226 28.8643 154.294 27.5245 155.612 27.5245C156.932 27.5245 158 28.8643 158 30.5167Z" fill="#22D7DA"/>
<path fill-rule="evenodd" clip-rule="evenodd" d="M158 43.68C158 45.3323 156.932 46.6721 155.612 46.6721C154.294 46.6721 153.226 45.3323 153.226 43.68C153.226 42.0283 154.294 40.6885 155.612 40.6885C156.932 40.6885 158 42.0283 158 43.68Z" fill="#22D7DA"/>
<path fill-rule="evenodd" clip-rule="evenodd" d="M158 57.4426C158 58.7641 156.932 59.8361 155.612 59.8361C154.294 59.8361 153.226 58.7641 153.226 57.4426C153.226 56.1206 154.294 55.0492 155.612 55.0492C156.932 55.0492 158 56.1206 158 57.4426Z" fill="#22D7DA"/>
<path fill-rule="evenodd" clip-rule="evenodd" d="M158 70.6066C158 71.9286 156.932 73 155.612 73C154.294 73 153.226 71.9286 153.226 70.6066C153.226 69.2846 154.294 68.2131 155.612 68.2131C156.932 68.2131 158 69.2846 158 70.6066Z" fill="#22D7DA"/>
</svg>
