<svg width="60" height="50" viewBox="0 0 60 50" fill="none" xmlns="http://www.w3.org/2000/svg">
<g clip-path="url(#clip0_1725_18683)">
<path d="M57.1118 25.461C56.2871 24.3129 54.9755 23.731 53.215 23.731C50.2603 23.7547 46.3841 26.5079 43.2676 28.7204C42.7189 29.1094 42.1923 29.4858 41.6959 29.8274C38.6825 31.9038 35.409 32.957 31.9801 32.957H31.5947L31.5312 33.0851C30.0594 36.0898 28.5178 38.4066 26.9572 39.9754L26.9049 40.0276L26.8938 40.0971C26.2942 43.7487 26.8525 47.0333 27.119 48.2763L27.1618 48.4692H27.2062C27.249 48.3981 27.2934 48.3285 27.341 48.232C27.2839 42.4313 32.4479 37.2822 40.3557 32.5237C43.4421 30.8221 46.2239 28.7045 48.7869 27.2481C49.2545 26.8054 49.7706 26.4166 50.3253 26.0889C51.3017 25.5066 52.408 25.1756 53.5445 25.126C54.6811 25.0763 55.8122 25.3093 56.8359 25.8042L57.6289 26.179L57.1118 25.461Z" fill="#D1D3D4"/>
<path d="M30.0658 33.1421L30.2117 32.8574L29.8945 32.8163C27.9273 32.5652 26.0326 31.9145 24.3276 30.9043C23.1413 30.1848 21.8027 29.1347 20.3848 28.0246C17.7203 25.9386 14.7006 23.5728 12.8022 23.5728C12.5957 23.5709 12.3904 23.6035 12.1947 23.6693C11.5334 23.9049 11.2431 24.7763 11.1226 25.2745C11.0104 25.7867 10.953 26.3094 10.9513 26.8337C12.2026 25.382 13.9425 27.2085 15.3176 28.295C16.6355 29.3356 22.0739 34.3234 28.9571 35.1631C29.3299 34.5305 29.701 33.8648 30.0673 33.1421" fill="#D1D3D4"/>
<path d="M49.0344 15.479C47.7766 15.4871 46.526 15.6691 45.3184 16.0198C42.5524 16.8105 40.2622 18.0077 38.0466 19.1827C35.5978 20.4716 33.2885 21.6877 30.605 22.1874C30.5664 22.195 30.5271 22.1987 30.4877 22.1985C30.3374 22.1992 30.1916 22.1474 30.0757 22.0521C29.9598 21.9567 29.8811 21.8238 29.8533 21.6766C29.835 21.5704 29.8454 21.4612 29.8834 21.3603C27.4727 21.6339 24.9811 21.4315 22.1564 20.685C22.1627 20.7479 22.1595 20.8113 22.1469 20.8732C22.1114 21.0103 22.0309 21.1315 21.9182 21.2175C21.8055 21.3035 21.6671 21.3493 21.5252 21.3477C21.4716 21.3478 21.4183 21.3409 21.3666 21.3271C20.6846 21.1532 20.0042 20.9697 19.3286 20.7878C16.6324 20.0588 14.0678 19.3646 11.9981 19.3646C11.7242 19.3646 11.4599 19.3772 11.2051 19.4025C8.82607 19.6445 7.04658 21.2006 6.52954 23.4668L7.04975 22.597C9.27015 20.8179 11.1623 19.2886 20.4197 22.597C29.6772 25.9053 35.1553 24.3967 40.3193 20.9428C44.933 17.8701 50.5458 15.6419 55.1928 17.5285C53.5291 16.1875 51.4181 15.4727 49.0328 15.4727" fill="#D1D3D4"/>
<path d="M39.079 0.316288C35.8436 4.25878 28.5924 6.642 19.2001 6.83967C8.38516 7.07372 2.6026 13.7584 0.937299 19.3994C-0.923081 25.7093 -2.79233e-05 32.4588 3.54944 38.4049C7.00534 44.2009 12.6119 48.4201 18.5483 49.6963C18.6088 49.7087 18.6704 49.7151 18.7322 49.7153C18.9184 49.7153 19.0996 49.6556 19.2492 49.5452C19.3988 49.4347 19.5089 49.2793 19.5633 49.1017C19.6045 48.9673 20.4118 46.2061 19.2366 42.4502C19.9497 42.7034 20.7 42.837 21.457 42.8456C21.7986 42.8451 22.1396 42.8176 22.4768 42.7634C23.4406 42.5946 24.3603 42.2337 25.1809 41.7022C24.9783 44.2776 25.1979 46.8688 25.8312 49.3737C25.8822 49.5553 25.9914 49.7153 26.1419 49.8295C26.2925 49.9437 26.4763 50.0057 26.6654 50.0063H26.7035C35.1902 49.641 41.1155 45.0169 45.3548 35.4493C47.2787 31.1035 49.0978 28.5432 51.0803 27.384C53.4212 26.0255 56.1048 26.4652 58.0888 28.5305C58.1143 28.5539 58.1413 28.5756 58.1697 28.5954C58.1903 28.6141 58.212 28.6315 58.2347 28.6475C58.3141 28.7018 58.402 28.7424 58.4949 28.7677C58.5116 28.7713 58.5286 28.7739 58.5456 28.7756C58.6324 28.792 58.721 28.7957 58.8089 28.7867H58.8533C58.8628 28.7867 58.8723 28.7772 58.8818 28.7756C58.8914 28.7741 58.9199 28.7756 58.9389 28.7756C59.019 28.7545 59.0955 28.7214 59.1657 28.6776C59.1792 28.6699 59.1915 28.6603 59.2022 28.6491C59.2729 28.602 59.3356 28.5438 59.3878 28.4768C59.4036 28.4562 59.4211 28.4372 59.4354 28.4151C59.4917 28.3343 59.5336 28.2444 59.5591 28.1494C60.6582 23.7815 59.6701 19.7125 56.847 16.9814C55.8803 16.0488 54.7411 15.3124 53.4926 14.8132C52.9994 12.43 51.8939 10.6462 50.1858 9.52652C46.538 7.13224 40.8284 8.16016 35.7928 9.3573C38.7444 7.11642 40.4144 4.2493 40.619 0.920393C40.6304 0.737383 40.5832 0.555504 40.4843 0.400917C40.3854 0.24633 40.2399 0.127002 40.0687 0.0600971C39.9678 0.0201195 39.8601 -0.000277017 39.7515 2.84128e-06C39.6229 -0.000156111 39.4959 0.0281306 39.3796 0.0828238C39.2634 0.137517 39.1607 0.217254 39.079 0.316288ZM5.04345 37.5194C1.74457 31.9923 0.883375 25.7314 2.60577 19.8896C4.10454 14.8037 9.35738 8.78641 19.2366 8.57292C27.4981 8.39263 34.2417 6.54869 38.3193 3.42537C37.0505 6.72581 33.7374 9.34149 28.7209 10.9324C28.514 10.9985 28.3395 11.1394 28.2317 11.3275C28.1239 11.5155 28.0905 11.7369 28.1383 11.9482C28.186 12.1595 28.3114 12.3453 28.4897 12.469C28.6679 12.5927 28.8862 12.6454 29.1015 12.6166C30.5765 12.4142 32.375 11.9714 34.2798 11.5096C39.3851 10.2445 45.7387 8.68203 49.231 10.9719C50.3412 11.6962 51.0993 12.7716 51.5561 14.2281C49.5086 13.809 47.2454 13.9118 44.9044 14.576C41.9862 15.4047 39.623 16.6461 37.3408 17.8496C34.9967 19.0831 32.7826 20.2486 30.3275 20.7056C30.2152 20.7264 30.1082 20.769 30.0124 20.831C29.9167 20.893 29.8341 20.9733 29.7695 21.0671C29.7048 21.1609 29.6593 21.2666 29.6356 21.3779C29.6119 21.4893 29.6104 21.6042 29.6312 21.7162C29.6521 21.8281 29.6948 21.9348 29.757 22.0303C29.8192 22.1258 29.8996 22.2081 29.9938 22.2726C30.0879 22.337 30.1938 22.3824 30.3055 22.406C30.4172 22.4297 30.5324 22.4312 30.6447 22.4104C33.3583 21.9043 35.685 20.6787 38.1481 19.382C40.3526 18.2212 42.6333 17.0225 45.377 16.2444C49.4134 15.101 53.1484 15.8222 55.6353 18.2244C57.2943 19.8295 58.1729 22.0198 58.2379 24.4742C57.1087 22.9971 55.3673 22.2238 53.1326 22.2333C49.7703 22.2586 45.6784 25.1652 42.389 27.4994C41.845 27.8869 41.3232 28.2569 40.8331 28.5954C37.5882 30.8204 34.2893 31.5637 31.4028 31.4388C31.307 31.4175 31.2083 31.4127 31.111 31.4245C28.9988 31.3078 26.9453 30.6886 25.1222 29.6185C24.012 28.9449 22.7083 27.9217 21.3269 26.84C17.8663 24.131 14.2898 21.3303 11.6951 22.2538C10.9957 22.5021 10.0743 23.1679 9.65872 24.9328C9.27332 26.5664 9.41923 28.8089 10.0489 31.1446C6.99741 28.5732 6.27895 25.6539 6.73889 23.5633C7.21469 21.3746 8.94026 19.869 11.2273 19.6366C13.37 19.4215 16.2359 20.1901 19.2715 21.0077C19.9487 21.1895 20.6291 21.373 21.3111 21.5485C21.5344 21.6058 21.7714 21.5722 21.97 21.4552C22.1685 21.3382 22.3123 21.1474 22.3697 20.9247C22.4271 20.7019 22.3935 20.4656 22.2761 20.2676C22.1588 20.0697 21.9674 19.9263 21.744 19.869C21.0684 19.6967 20.3944 19.5148 19.7251 19.3345C16.5277 18.4742 13.5079 17.6614 11.0496 17.9112C8.03624 18.2275 5.67944 20.2834 5.04187 23.1916C4.36782 26.2533 5.60966 30.6702 11.0401 33.9849C11.8493 35.8849 12.9886 37.6275 14.4056 39.1324C15.165 39.9305 16.0047 40.6486 16.9115 41.2752C18.2596 44.1408 18.2073 46.592 18.0518 47.7986C12.9005 46.4149 8.08699 42.6289 5.04663 37.5194H5.04345ZM15.6586 37.9258C12.2122 34.3597 10.6135 28.423 11.3431 25.3265C11.4493 24.8727 11.7126 24.082 12.2709 23.8827C12.4419 23.8248 12.6216 23.7965 12.8022 23.7989C14.6213 23.7989 17.7188 26.2201 20.2453 28.2032C21.6727 29.3102 23.0128 30.3713 24.2103 31.0972C25.9429 32.1223 27.8676 32.7832 29.866 33.0392C27.3696 37.9416 24.7908 40.63 22.1976 41.0523C21.9575 41.0916 21.7146 41.1111 21.4713 41.1108C19.66 41.1108 17.7061 40.0433 15.657 37.9258H15.6586ZM41.826 30.0186C42.324 29.6771 42.8521 29.3007 43.4041 28.9116C46.492 26.7182 50.3381 23.9887 53.1548 23.9649H53.2198C54.9168 23.9649 56.1444 24.5058 56.9326 25.6017C55.8751 25.0914 54.7069 24.8511 53.5331 24.9025C52.3593 24.9538 51.2167 25.2952 50.208 25.8959C47.894 27.2401 45.8481 30.055 43.7673 34.7519C39.9482 43.3722 34.7175 47.6737 27.3442 48.2335C26.782 45.5683 26.7062 42.8239 27.1206 40.1319C28.7066 38.5346 30.2434 36.2289 31.739 33.1736H31.9817C35.0585 33.1736 38.4716 32.3117 41.826 30.0028" fill="#0744F2"/>
<path d="M23.4727 21.1817C23.4508 21.2934 23.4512 21.4083 23.4739 21.5199C23.4966 21.6315 23.541 21.7375 23.6048 21.832C23.6686 21.9264 23.7504 22.0074 23.8456 22.0703C23.9408 22.1332 24.0474 22.1767 24.1595 22.1985C25.085 22.3864 26.0208 22.52 26.962 22.5986H27.0301C27.2536 22.5968 27.4678 22.5092 27.6282 22.354C27.7886 22.1988 27.8828 21.988 27.8914 21.7653C27.9 21.5426 27.8222 21.3252 27.6742 21.1582C27.5262 20.9912 27.3194 20.8875 27.0968 20.8685C26.2201 20.7945 25.3484 20.6699 24.4862 20.4953C24.3741 20.4726 24.2586 20.4723 24.1463 20.4944C24.0341 20.5165 23.9274 20.5606 23.8324 20.6242C23.7374 20.6877 23.6559 20.7694 23.5929 20.8646C23.5298 20.9597 23.4862 21.0664 23.4648 21.1785" fill="#0744F2"/>
</g>
<defs>
<clipPath id="clip0_1725_18683">
<rect width="60" height="50" fill="white"/>
</clipPath>
</defs>
</svg>
