<svg width="37" height="24" viewBox="0 0 37 24" fill="none" xmlns="http://www.w3.org/2000/svg">
<path opacity="0.697428" fill-rule="evenodd" clip-rule="evenodd" d="M19.2171 23.7435H18.6406C17.0654 23.5982 15.8144 22.7624 15.5601 21.6856L14.1104 14.7545C13.9731 14.0924 14.2548 13.4216 14.8847 12.9114L19.3819 9.2706C19.9687 8.79288 21.0086 8.73213 21.7046 9.13491C22.4006 9.53769 22.4891 10.2515 21.9023 10.7292L17.4051 14.37L18.8218 21.3238C18.852 21.4204 18.9744 21.4904 19.1183 21.4934C19.3201 21.5195 19.5206 21.4436 19.596 21.3125L33.1864 2.64473C33.2602 2.54812 33.2384 2.43016 33.1316 2.34933C33.0249 2.2685 32.856 2.24197 32.7087 2.2829L4.04528 9.73418C3.8519 9.77521 3.72326 9.90068 3.73229 10.0395C3.72908 10.1486 3.83998 10.2438 3.99586 10.2656L9.99212 11.2154C10.5659 11.3063 11.0255 11.6004 11.1978 11.9869C11.37 12.3735 11.2287 12.7937 10.8271 13.0894C10.4255 13.385 9.82464 13.5111 9.25082 13.4202L3.15573 12.4478C1.60607 12.1646 0.508954 11.2187 0.454115 10.1186C0.385758 9.00984 1.37241 7.99858 2.89215 7.61978L31.5556 0.168505C32.9744 -0.206478 34.5832 0.057221 35.6021 0.831783C36.6211 1.60635 36.8395 2.73169 36.1516 3.66235L22.6106 22.3414C21.9686 23.2192 20.6478 23.7649 19.2171 23.7435Z" fill="#FFBA5F"/>
</svg>
