<svg width="565" height="358" viewBox="0 0 565 358" fill="none" xmlns="http://www.w3.org/2000/svg">
<path opacity="0.2" fill-rule="evenodd" clip-rule="evenodd" d="M368.47 63.9559C333.139 24.2447 259.137 9.46575 183.089 31.3748C88.7681 58.5486 27.017 131.87 45.1645 195.142C60.0533 247.054 124.098 276.073 198.706 269.815C234.48 298.504 294.711 307.979 356.124 290.286C442.272 265.467 498.124 196.589 480.873 136.442C468.771 94.2499 423.911 67.5621 368.47 63.9559Z" fill="url(#paint0_linear_1547_884)"/>
<g opacity="0.3">
<path fill-rule="evenodd" clip-rule="evenodd" d="M239.815 278.354C244.841 279.279 253.85 265.975 253.396 254C252.941 242.025 241.829 244.342 245.678 222.44C249.526 200.538 254.233 190.208 232.394 171.04C210.555 151.873 213.11 132.393 195.547 134.521C177.985 136.65 182.356 161.982 194.801 179.097C207.246 196.213 206.248 201.909 191.582 208.172C176.916 214.436 204.272 234.104 207.751 239.894C211.23 245.685 209.482 261.373 216.047 268.441C222.612 275.509 234.788 277.429 239.815 278.354Z" fill="url(#paint1_linear_1547_884)"/>
<path d="M232.567 248.377C229.896 243.933 220.45 230.762 209.26 226.008" stroke="url(#paint2_linear_1547_884)" stroke-width="6" stroke-linecap="round"/>
<path d="M226.557 216.693C223.887 212.249 234.52 201.613 235.576 189.501" stroke="url(#paint3_linear_1547_884)" stroke-width="6" stroke-linecap="round"/>
<path d="M244.945 303.603C243.809 301.712 241.952 291.227 239.137 279.477C230.323 242.682 223.187 195.14 207.331 168.751" stroke="url(#paint4_linear_1547_884)" stroke-width="6" stroke-linecap="round"/>
</g>
<g opacity="0.3">
<path d="M319.865 276.541C319.581 260.267 332.405 209.667 350.422 181.787" stroke="url(#paint5_linear_1547_884)" stroke-width="6" stroke-linecap="round"/>
<path fill-rule="evenodd" clip-rule="evenodd" d="M341.936 189.6C341.936 189.6 342.596 181.467 338.383 174.455C334.17 167.444 328.93 162.856 326.679 164.209C324.428 165.561 326.019 172.342 330.232 179.353C334.445 186.365 341.936 189.6 341.936 189.6Z" fill="url(#paint6_linear_1547_884)"/>
<path fill-rule="evenodd" clip-rule="evenodd" d="M346.887 192.316C346.887 192.316 353.758 196.718 361.926 196.29C370.095 195.861 376.606 193.388 376.468 190.766C376.331 188.143 369.597 186.364 361.429 186.793C353.26 187.221 346.887 192.316 346.887 192.316Z" fill="url(#paint7_linear_1547_884)"/>
<path fill-rule="evenodd" clip-rule="evenodd" d="M338.389 213.177C338.389 213.177 345.02 217.932 353.2 217.932C361.38 217.932 368.011 215.803 368.011 213.177C368.011 210.551 361.38 208.422 353.2 208.422C345.02 208.422 338.389 213.177 338.389 213.177Z" fill="url(#paint8_linear_1547_884)"/>
<path fill-rule="evenodd" clip-rule="evenodd" d="M331.538 234.134C331.538 234.134 338.169 238.889 346.349 238.889C354.529 238.889 361.16 236.76 361.16 234.134C361.16 231.508 354.529 229.379 346.349 229.379C338.169 229.379 331.538 234.134 331.538 234.134Z" fill="url(#paint9_linear_1547_884)"/>
<path fill-rule="evenodd" clip-rule="evenodd" d="M351.995 178.656C351.995 178.656 359.541 175.553 363.876 168.616C368.211 161.679 369.919 154.927 367.692 153.535C365.465 152.144 360.146 156.639 355.811 163.576C351.476 170.513 351.995 178.656 351.995 178.656Z" fill="url(#paint10_linear_1547_884)"/>
<path fill-rule="evenodd" clip-rule="evenodd" d="M332.82 210.842C332.82 210.842 331.916 202.732 326.443 196.653C320.969 190.574 314.95 187.071 312.998 188.828C311.047 190.585 313.902 196.938 319.375 203.016C324.849 209.095 332.82 210.842 332.82 210.842Z" fill="url(#paint11_linear_1547_884)"/>
<path fill-rule="evenodd" clip-rule="evenodd" d="M325.461 232.683C325.461 232.683 323.715 224.712 317.636 219.239C311.557 213.765 305.204 210.91 303.447 212.862C301.69 214.813 305.193 220.832 311.272 226.306C317.351 231.779 325.461 232.683 325.461 232.683Z" fill="url(#paint12_linear_1547_884)"/>
</g>
<path opacity="0.472712" d="M194.203 86.7002L235.34 55.5568" stroke="url(#paint13_linear_1547_884)" stroke-width="8" stroke-linecap="round" stroke-linejoin="round"/>
<path opacity="0.472712" d="M194.608 102.338L227.055 77.7735" stroke="url(#paint14_linear_1547_884)" stroke-width="8" stroke-linecap="round" stroke-linejoin="round"/>
<path opacity="0.472712" d="M336.458 122.386L377.595 91.2427" stroke="url(#paint15_linear_1547_884)" stroke-width="8" stroke-linecap="round" stroke-linejoin="round"/>
<path opacity="0.472712" d="M336.863 138.024L369.31 113.46" stroke="url(#paint16_linear_1547_884)" stroke-width="8" stroke-linecap="round" stroke-linejoin="round"/>
<path fill-rule="evenodd" clip-rule="evenodd" d="M486.718 170.07L396.841 153.141C370.759 191.712 358.416 224.239 359.814 250.725C376.293 257.618 408.017 268.526 454.987 283.449L492.78 180.877C494.328 176.676 492.208 172.003 488.045 170.441C487.614 170.279 487.169 170.155 486.718 170.07Z" fill="#86A5F8"/>
<path fill-rule="evenodd" clip-rule="evenodd" d="M396.871 175.237C397.691 178.093 397.321 180.154 395.758 181.42C393.415 183.32 391.061 186.551 388.741 186.817C386.421 187.083 383.909 188.367 383.503 191.651C383.306 193.238 375.255 201.441 372.379 212.727C371.651 215.585 372.537 219.982 375.037 225.918L381.688 222.223L391.161 206.738C401.682 203.049 407.613 200.764 408.954 199.883C410.965 198.561 417.481 192.904 416.225 190.783C414.968 188.662 419.056 175.187 421.483 172.568C423.91 169.948 425.899 163.565 425.947 161.209C425.995 158.852 426.837 151.796 420.778 152.021C416.739 152.171 408.77 159.91 396.871 175.237Z" fill="#FF9775"/>
<mask id="mask0_1547_884" style="mask-type:luminance" maskUnits="userSpaceOnUse" x="372" y="152" width="55" height="74">
<path fill-rule="evenodd" clip-rule="evenodd" d="M396.871 175.237C397.691 178.093 397.321 180.154 395.758 181.42C393.415 183.32 391.061 186.551 388.741 186.817C386.421 187.083 383.909 188.367 383.503 191.651C383.306 193.238 375.255 201.441 372.379 212.727C371.651 215.585 372.537 219.982 375.037 225.918L381.688 222.223L391.161 206.738C401.682 203.049 407.613 200.764 408.954 199.883C410.965 198.561 417.481 192.904 416.225 190.783C414.968 188.662 419.056 175.187 421.483 172.568C423.91 169.948 425.899 163.565 425.947 161.209C425.995 158.852 426.837 151.796 420.778 152.021C416.739 152.171 408.77 159.91 396.871 175.237Z" fill="white"/>
</mask>
<g mask="url(#mask0_1547_884)">
</g>
<path fill-rule="evenodd" clip-rule="evenodd" d="M390.591 126.82C387.818 128.705 390.184 136.29 387.182 140.621C385.54 142.988 382.088 144.304 380.494 145.247C375.984 147.912 380.618 149.815 381.55 151.401C382.482 152.988 381.739 156.572 381.041 159.397C380.344 162.222 377.867 168.588 380.522 170.01C383.177 171.432 399.477 177.643 404.19 175.746C408.903 173.849 410.589 164.347 411.75 163.729C412.912 163.111 413.728 163.763 414.801 164.033C417.592 164.735 420.113 163.156 421.455 160.909C422.975 158.364 425.135 159.526 423.967 156.048C422.165 150.682 411.719 129.55 407.569 128.031C403.418 126.511 394.881 123.905 390.591 126.82Z" fill="#FF9775"/>
<path fill-rule="evenodd" clip-rule="evenodd" d="M404.131 132.627C393.516 129.956 388.58 132.348 384.737 124.023C382.467 119.106 386.887 104.021 394.33 103.68C396.162 112.112 405.011 112.837 410.139 113.537C437.67 117.299 440.551 142.703 432.309 157.667C429.655 162.485 427.2 165.946 425.01 168.541C423.62 170.189 421.803 172.174 421.189 173.116C420.984 173.43 419.208 177.398 418.901 177.321C417.973 177.088 418.346 177.04 418.801 172.933C419.257 168.827 419.511 167.721 420.336 164.38C420.58 163.393 425.197 155.811 421.651 153.066C419.288 151.236 416.095 152.353 412.072 156.419L409.629 155.49C411.243 151.869 412.263 149.195 412.69 147.47C413.329 144.881 414.745 135.298 404.131 132.627Z" fill="#0744F2"/>
<path fill-rule="evenodd" clip-rule="evenodd" d="M409.633 155.614C408.823 157.436 405.765 161.637 403.006 163.154C400.247 164.672 394.435 164.764 393.243 163.034C392.05 161.305 386.635 153.469 381.754 152.241C381.509 153.233 380.84 154.92 379.748 157.302C383.525 158.887 385.719 160.378 386.33 161.775C387.246 163.87 387.738 162.466 386.823 163.397C385.908 164.328 381.133 163.612 380.77 159.979C379.393 162.872 377.913 170.682 378.435 172.467C378.956 174.251 381.959 175.069 384.923 175.261C387.886 175.453 398.444 177.08 401.134 176.525C403.823 175.97 407.239 176.29 409.489 169.715C411.739 163.14 411.239 158.88 414.175 153.28C417.11 147.68 410.443 153.792 409.633 155.614Z" fill="#0744F2"/>
<g filter="url(#filter0_i_1547_884)">
<path fill-rule="evenodd" clip-rule="evenodd" d="M418.043 182.208C429.198 184.772 436.694 189.045 440.529 195.029C446.281 204.003 449.164 227.844 449.164 235.576C449.164 243.309 450.081 262.279 449.164 267.454C448.246 272.629 444.034 276.474 435.317 276.474C429.505 276.474 396.566 265.565 336.499 243.746C344.398 239.804 348.474 237.081 348.725 235.576C349.102 233.32 367.433 192.17 373.231 187.978C379.028 183.786 391.063 181.802 395.887 181.802C395.182 183.778 393.613 185.373 395.831 187.978C398.05 190.583 402.403 191.038 406.715 189.23C409.59 188.024 413.366 185.684 418.043 182.208Z" fill="#0744F2"/>
</g>
<path fill-rule="evenodd" clip-rule="evenodd" d="M265.909 53.255C267.539 65.7156 267.851 72.9665 266.846 75.0077C265.338 78.0696 268.258 92.4732 277.557 93.3083C286.856 94.1433 291.731 90.1688 292.096 80.4507C292.462 70.7326 293.044 66.9859 294.546 62.6856C296.047 58.3853 268.061 40.5688 266.846 43.8626C266.036 46.0585 265.723 49.1893 265.909 53.255Z" fill="#FF9775"/>
<path fill-rule="evenodd" clip-rule="evenodd" d="M304.128 24.6285C304.128 27.3991 304.495 36.0482 304.218 38.2399C303.94 40.4316 303.719 43.6977 303.968 47.9171C304.218 52.1365 302.033 62.5143 299.595 66.274C298.139 68.5187 292.368 72.8462 286.708 72.2383C279.997 71.5175 272.66 65.0177 271.875 61.7676C270.428 55.7759 271.627 50.4884 267.458 47.3045C263.288 44.1206 260.25 41.1632 260.624 36.2478C260.999 31.3325 265.281 19.6314 267.458 19.1397C269.634 18.648 304.128 21.858 304.128 24.6285Z" fill="#FF9775"/>
<path fill-rule="evenodd" clip-rule="evenodd" d="M268.307 21.091C270.286 24.086 287.609 38.5237 304.972 29.1503C322.334 19.7769 299.238 2.76062 288.765 0.819239C278.291 -1.12208 269.272 -0.0430183 262.937 8.77483C256.602 17.5927 253.425 32.7054 265.818 53.2067C266.363 49.9535 266.636 47.7854 266.636 46.7026C261.704 42.1761 260.471 37.958 262.937 34.0483C266.636 28.1838 267.86 39.6822 268.307 41.5293C269.779 41.5293 270.706 41.2718 271.087 40.7568C270.072 37.8547 269.702 35.1709 269.977 32.7054C270.389 29.007 271.607 28.1838 268.307 21.091Z" fill="#0744F2"/>
<path fill-rule="evenodd" clip-rule="evenodd" d="M235.251 237.287C235.251 232.768 230.034 203.172 240.788 194.281C251.543 185.389 264.845 198.36 313.839 200.326C314.645 220.202 314.645 234.196 313.839 242.306C313.032 250.416 283.438 261.913 235.251 237.287Z" fill="#3D82F0"/>
<path fill-rule="evenodd" clip-rule="evenodd" d="M226.947 198.959C228.102 204.092 231.925 209.576 233.212 210.76C234.5 211.944 239.185 213.412 240.07 213.127C240.956 212.842 243.287 210.888 243.393 208.6C243.498 206.313 241.262 205.024 241.247 201.644C241.231 198.264 235.628 193.362 235.628 190.372C235.628 187.382 225.792 193.826 226.947 198.959Z" fill="#FF9775"/>
<path fill-rule="evenodd" clip-rule="evenodd" d="M370.966 191.917C374.441 196.541 376.703 197.35 378.006 198.729C379.309 200.108 382.289 204.976 383.396 204.165C384.503 203.354 385.65 201.755 383.927 198.729C382.205 195.703 379.596 192.511 380.502 190.909C381.407 189.307 385.827 184.573 389.517 183.473C393.206 182.374 394.432 183.084 394.799 182.494C395.167 181.903 390.387 181.046 388.418 180.824C386.448 180.603 383.657 180.348 379.633 180.824C376.95 181.142 375.081 180.023 374.026 177.468C369.669 184.018 368.649 188.834 370.966 191.917Z" fill="#FF9775"/>
<path fill-rule="evenodd" clip-rule="evenodd" d="M237.295 192.044C234.831 190.651 226.582 193.976 226.582 200.7C222.202 185.743 210.046 165.499 210.046 143.374C215.618 124.086 230.156 93.6783 233.403 88.9059C235.568 85.7242 246.292 81.2707 265.577 75.5455C269.89 80.2747 275.002 82.6393 280.913 82.6393C289.778 82.6393 290.244 77.1854 292.612 76.9008C294.981 76.6161 308.398 82.6393 315.016 89.0474C321.634 95.4554 328.72 120.659 346.127 140.223C363.535 159.787 369.779 173.436 378.416 180.787C375.248 183.634 370.955 185.291 370.955 192.044C367.829 189.745 350.387 177.711 335.603 163.703C320.82 149.696 314.264 138.046 312.032 136.469C309.467 134.656 315.266 190.764 315.016 200.7C314.766 210.636 280.711 211.202 270.061 211.202C259.411 211.202 242.941 207.505 238.714 203.859C238.017 203.258 239.843 124.37 238.714 127.68C235.848 136.078 229.193 140.223 229.193 145.753C229.193 158.606 237.31 192.949 237.295 192.044Z" fill="#C4D4FF"/>
<mask id="mask1_1547_884" style="mask-type:luminance" maskUnits="userSpaceOnUse" x="210" y="75" width="169" height="137">
<path fill-rule="evenodd" clip-rule="evenodd" d="M237.295 192.044C234.831 190.651 226.582 193.976 226.582 200.7C222.202 185.743 210.046 165.499 210.046 143.374C215.618 124.086 230.156 93.6783 233.403 88.9059C235.568 85.7242 246.292 81.2707 265.577 75.5455C269.89 80.2747 275.002 82.6393 280.913 82.6393C289.778 82.6393 290.244 77.1854 292.612 76.9008C294.981 76.6161 308.398 82.6393 315.016 89.0474C321.634 95.4554 328.72 120.659 346.127 140.223C363.535 159.787 369.779 173.436 378.416 180.787C375.248 183.634 370.955 185.291 370.955 192.044C367.829 189.745 350.387 177.711 335.603 163.703C320.82 149.696 314.264 138.046 312.032 136.469C309.467 134.656 315.266 190.764 315.016 200.7C314.766 210.636 280.711 211.202 270.061 211.202C259.411 211.202 242.941 207.505 238.714 203.859C238.017 203.258 239.843 124.37 238.714 127.68C235.848 136.078 229.193 140.223 229.193 145.753C229.193 158.606 237.31 192.949 237.295 192.044Z" fill="white"/>
</mask>
<g mask="url(#mask1_1547_884)">
<path fill-rule="evenodd" clip-rule="evenodd" d="M235.143 134.591L250.401 114.25C250.401 114.25 256.052 180.213 230.824 203.062C226.378 176.632 228.853 162.818 230.824 151.269C232.118 143.685 235.143 134.591 235.143 134.591Z" fill="url(#paint17_linear_1547_884)" style="mix-blend-mode:multiply"/>
</g>
<path fill-rule="evenodd" clip-rule="evenodd" d="M267.199 65.3837C267.199 68.4443 271.839 76.9998 280.799 76.6743C289.759 76.3488 291.561 76.1013 292.58 71.5376C292.58 78.2989 292.929 80.2947 291.276 84.7534C289.624 89.212 279.325 91.6566 273.549 87.953C267.773 84.2495 264.763 82.0323 265.608 75.271C266.453 68.5097 267.199 62.323 267.199 65.3837Z" fill="#C4D4FF"/>
<path fill-rule="evenodd" clip-rule="evenodd" d="M64.559 158.367L146.748 138.507C161.949 179.493 168.845 213.202 167.437 239.635C150.84 246.515 125.944 255.435 92.7503 266.394L58.8115 168.904C57.3406 164.679 59.5733 160.061 63.7981 158.59C64.048 158.504 64.3019 158.429 64.559 158.367Z" fill="#86A5F8"/>
<path fill-rule="evenodd" clip-rule="evenodd" d="M158.114 144.052C156.354 149.625 162.071 165.361 171.152 173.051C180.233 180.74 151.024 179.433 151.007 170.86C150.99 162.286 159.874 138.479 158.114 144.052Z" fill="#316EEA"/>
<path fill-rule="evenodd" clip-rule="evenodd" d="M162.089 161.516C168.957 164.349 173.908 167.373 176.943 170.59C181.495 175.416 203.633 212.95 206.243 215.171C208.853 217.393 226.816 219.076 229.521 219.963C228.138 221.965 225.447 228.147 226.83 233.584C222.561 235.733 213.183 233.814 194.002 231.665C179.733 219.728 172.324 200.903 169.273 191.915C166.222 182.928 163.827 172.795 162.089 161.516Z" fill="#503F88"/>
<path fill-rule="evenodd" clip-rule="evenodd" d="M171.513 167.953C177.057 177.437 185.61 196.481 188.039 204.703C190.644 213.52 180.518 236.739 180.636 242.195C180.734 246.745 176.052 245.157 134.464 249.342C133.178 241.32 133.178 231.29 134.464 219.251C136.392 201.193 128.535 176.898 130.713 172.818C132.891 168.739 138.19 160.064 140.516 160.064C142.843 160.064 165.968 158.469 171.513 167.953Z" fill="#392C66"/>
<path fill-rule="evenodd" clip-rule="evenodd" d="M0 267.779L243.948 216.85C252.972 214.966 262.34 215.603 271.026 218.69L393.231 262.122C440.298 278.85 434.892 347.084 385.778 356.191C382.84 356.736 379.859 357.01 376.871 357.01H89.231C39.9501 357.01 0 317.06 0 267.779Z" fill="url(#paint18_linear_1547_884)"/>
<g style="mix-blend-mode:multiply" opacity="0.196931">
<path fill-rule="evenodd" clip-rule="evenodd" d="M180.071 276.456L279.218 260.43L354.654 293.483L245.444 322.455" fill="url(#paint19_linear_1547_884)"/>
</g>
<path fill-rule="evenodd" clip-rule="evenodd" d="M155.921 146.36C154.885 151.202 155.779 154.705 155.779 160.216C155.779 167.582 140.739 164.585 140.225 159.001C139.712 153.417 140.318 145.931 138.2 140.859C136.082 135.786 156.957 141.518 155.921 146.36Z" fill="#FF9775"/>
<mask id="mask2_1547_884" style="mask-type:luminance" maskUnits="userSpaceOnUse" x="138" y="138" width="18" height="27">
<path fill-rule="evenodd" clip-rule="evenodd" d="M155.921 146.36C154.885 151.202 155.779 154.705 155.779 160.216C155.779 167.582 140.739 164.585 140.225 159.001C139.712 153.417 140.318 145.931 138.2 140.859C136.082 135.786 156.957 141.518 155.921 146.36Z" fill="white"/>
</mask>
<g mask="url(#mask2_1547_884)">
<path opacity="0.717132" fill-rule="evenodd" clip-rule="evenodd" d="M134.389 167.908C134.389 167.908 157.108 148.871 162.351 148.871C167.594 148.871 134.389 142.489 134.389 142.489V167.908Z" fill="#FF9775"/>
</g>
<path fill-rule="evenodd" clip-rule="evenodd" d="M160.539 107.397C161.876 111.619 161.726 116.3 164.32 120.332C166.914 124.363 170.331 127.884 171.239 129.675C172.147 131.467 167.598 133.058 167.598 134.66C167.598 136.262 170.629 147.407 169.007 148.472C168.083 150.961 151.061 154.412 146.763 151.94C142.974 151.94 137.134 148.615 133.55 140.446C129.967 132.277 129.801 112.44 133.55 107.397C137.299 102.354 159.202 103.176 160.539 107.397Z" fill="#FF9775"/>
<path fill-rule="evenodd" clip-rule="evenodd" d="M187.098 268.758L192.777 222.686L270.216 221.134L263.445 266.113L187.098 268.758Z" fill="#0744F2"/>
<mask id="mask3_1547_884" style="mask-type:luminance" maskUnits="userSpaceOnUse" x="187" y="221" width="84" height="48">
<path fill-rule="evenodd" clip-rule="evenodd" d="M187.098 268.758L192.777 222.686L270.216 221.134L263.445 266.113L187.098 268.758Z" fill="white"/>
</mask>
<g mask="url(#mask3_1547_884)">
<g style="mix-blend-mode:multiply" opacity="0.458036">
<path fill-rule="evenodd" clip-rule="evenodd" d="M267.546 256.343L257.465 219.923H273.704L267.546 256.343Z" fill="url(#paint20_linear_1547_884)"/>
</g>
<g style="mix-blend-mode:multiply" opacity="0.528404">
<path fill-rule="evenodd" clip-rule="evenodd" d="M195.704 247.505C195.704 250.411 202.702 254.629 210.928 258.322C215.698 260.462 215.041 265.432 217.117 265.432C222.772 265.432 182.612 281.757 182.612 281.757C182.612 281.757 180.435 259.682 182.612 253.921C184.986 247.643 195.704 245.909 195.704 247.505Z" fill="url(#paint21_linear_1547_884)"/>
</g>
</g>
<path fill-rule="evenodd" clip-rule="evenodd" d="M180.793 250.067C183.144 250.067 185.991 248.823 190.15 247.873C194.308 246.923 196.931 245.412 198.207 246.817C198.706 247.366 197.874 248.703 197.266 249.067C196.657 249.432 196.335 249.968 193.431 251.042C190.736 252.038 189.175 252.504 189.662 253.433C190.15 254.361 194.564 255.169 195.979 255.544C197.783 256.021 200.497 256.953 203.085 257.388C205.978 257.874 209.174 257.928 209.541 258.14C210.237 258.542 211.254 260.053 209.541 260.536C209.136 260.65 206.209 260.709 202.649 260.536C198.847 260.351 195.361 259.623 195.979 260.536C196.125 260.752 199.631 261.467 203.482 261.467C205.764 261.467 210.383 261.751 210.675 261.751C211.731 261.751 212.261 263.196 211.303 263.906C211.079 264.072 206.623 264.576 203.085 264.707C199.014 264.857 195.41 264.488 195.367 264.707C195.336 264.866 199.625 265.406 203.482 265.222C206.603 265.074 208.319 264.83 208.902 265.222C209.485 265.615 209.337 266.664 208.902 267.137C208.721 267.333 205.901 268.23 203.085 268.416C199.131 268.678 194.836 268.22 194.798 268.416C194.697 268.936 202.003 269.265 203.085 269.265C204.626 269.265 204.432 271.258 202.649 271.68C200.412 272.209 195.784 272.167 193.677 272.167C191.571 272.167 188.406 271.68 185.239 270.504C182.072 269.328 177.843 267.753 175.162 267.137C172.265 266.471 174.346 257.311 176.351 252.505C178.357 247.699 178.441 250.067 180.793 250.067Z" fill="#FF9775"/>
<path fill-rule="evenodd" clip-rule="evenodd" d="M110.798 197.224C104.807 212.543 109.543 224.17 112.173 237.442C114.802 250.714 115.999 253.587 120.19 256.286C124.38 258.986 134.657 262.746 174.156 267.307C174.156 264.152 174.055 256.314 179.218 249.733C171.919 249.733 145.973 242.576 137.053 240.334C129.038 234.191 137.053 224.343 137.053 205.866C137.053 187.389 116.788 181.905 110.798 197.224Z" fill="#503F88"/>
<path fill-rule="evenodd" clip-rule="evenodd" d="M154.109 123.18L133.891 126.989V128.502L154.829 126.908L154.109 123.18Z" fill="#0744F2"/>
<path fill-rule="evenodd" clip-rule="evenodd" d="M159.491 131.096C157.157 131.341 154.949 128.562 154.563 124.894C154.178 121.225 155.76 118.048 158.094 117.803C160.428 117.557 162.637 120.336 163.022 124.005C163.408 127.673 161.825 130.85 159.491 131.096Z" fill="black" fill-opacity="0.01" stroke="#0744F2" stroke-width="4"/>
<path fill-rule="evenodd" clip-rule="evenodd" d="M170.765 124.561C168.653 124.783 166.655 122.268 166.307 118.949C165.958 115.631 167.389 112.756 169.501 112.534C171.613 112.312 173.611 114.826 173.96 118.145C174.308 121.464 172.877 124.339 170.765 124.561Z" fill="black" fill-opacity="0.01" stroke="#0744F2" stroke-width="4"/>
<path fill-rule="evenodd" clip-rule="evenodd" d="M162.598 122.724C162.598 121.799 165.21 119.984 166.52 120.897L162.598 122.724Z" fill="black" fill-opacity="0.01"/>
<path d="M162.598 122.724C162.598 121.799 165.21 119.984 166.52 120.897" stroke="#0744F2" stroke-width="4"/>
<path fill-rule="evenodd" clip-rule="evenodd" d="M134.954 109.32C140.552 113.648 153.575 114.917 162.44 110.735C171.305 106.554 173.469 89.4331 162.44 84.1655C158.246 82.1621 149.915 83.459 151.07 89.4985C141.421 85.7674 130.929 89.0349 126.769 91.5237C120.288 95.4016 115.235 99.6269 112.579 108.51C109.922 117.392 114.259 126.226 112.125 130.749C109.99 135.273 103.702 139.2 107.064 153.101C110.426 167.002 102.348 164.778 100.527 173.257C98.7056 181.736 104.506 185.782 100.527 191.432C96.5472 197.081 88.9185 220.933 103.207 233.708C117.496 246.483 144.122 255.79 150.172 228.29C156.223 200.791 127.84 194.787 136.169 181.036C144.498 167.284 138.981 154.535 140.724 150.603C142.869 145.766 140.563 138.385 136.49 128.382C132.717 119.117 138.148 116.643 134.954 109.32Z" fill="#0744F2"/>
<path fill-rule="evenodd" clip-rule="evenodd" d="M184.662 303.299L238.553 294.039C268.299 312.629 282.876 321.984 282.285 322.103C281.444 322.273 221.937 332.679 217.917 333.757C218.293 332.797 207.205 322.642 184.662 303.299Z" fill="#0744F2"/>
<path fill-rule="evenodd" clip-rule="evenodd" d="M215 290.79L271.318 287L302.279 314.052L232.115 318.893L215 290.79Z" fill="#4B91F9"/>
<path fill-rule="evenodd" clip-rule="evenodd" d="M354.897 292.967L406.045 272.6C407.084 272.186 407.591 271.009 407.177 269.969C406.962 269.43 406.526 269.008 405.979 268.812L340.852 245.469L276.606 261.348L354.897 292.967Z" fill="#4B91F9"/>
<path fill-rule="evenodd" clip-rule="evenodd" d="M265.219 195.204L337.385 218.558C339.508 219.246 341.084 221.042 341.489 223.236L354.401 293.222L276.201 261.498L262.098 198.044C261.807 196.734 262.633 195.435 263.943 195.144C264.366 195.05 264.807 195.071 265.219 195.204Z" fill="#7295F0"/>
<path fill-rule="evenodd" clip-rule="evenodd" d="M301.42 246.784C305.139 248.599 309.061 248.595 310.679 245.278C312.297 241.96 309.378 238.205 305.659 236.391C301.94 234.577 298.423 234.581 296.805 237.898C295.187 241.215 297.701 244.97 301.42 246.784Z" fill="#0744F2"/>
<path fill-rule="evenodd" clip-rule="evenodd" d="M276.877 43.4925C276.864 40.9649 278.902 38.9046 281.429 38.89L285.344 38.8674C287.934 38.8524 290.029 40.9717 289.984 43.5615V43.5615C289.94 46.1014 287.852 48.1282 285.312 48.0959L281.398 48.0462C278.901 48.0146 276.891 45.9889 276.877 43.4925V43.4925Z" stroke="#0744F2" stroke-width="5"/>
<path fill-rule="evenodd" clip-rule="evenodd" d="M298.317 43.5097C298.289 40.9601 300.348 38.8785 302.898 38.8795L305.667 38.8806C308.229 38.8816 310.298 40.9715 310.273 43.5329V43.5329C310.248 46.0975 308.134 48.1484 305.57 48.0955L302.802 48.0384C300.329 47.9873 298.344 45.9826 298.317 43.5097V43.5097Z" stroke="#0744F2" stroke-width="5"/>
<path fill-rule="evenodd" clip-rule="evenodd" d="M289.972 42.92H298.072H289.972Z" fill="black" fill-opacity="0.01"/>
<path d="M289.972 42.92H298.072" stroke="#0744F2" stroke-width="4"/>
<path fill-rule="evenodd" clip-rule="evenodd" d="M267.614 36.0268L277.484 40.8211V45.5157L268.551 39.2823L267.614 36.0268Z" fill="#0744F2"/>
<path fill-rule="evenodd" clip-rule="evenodd" d="M167.77 137.639C168.167 137.434 168.042 138.34 168.215 138.872C168.388 139.405 168.506 139.488 168.563 139.835C166.913 140.685 164.043 140.853 162.12 139.715C161.735 139.487 161.399 139.301 161.718 138.987C162.037 138.673 162.434 138.87 162.863 138.997C164.36 139.44 166.742 138.168 167.77 137.639Z" fill="#0744F2"/>
<path opacity="0.7" fill-rule="evenodd" clip-rule="evenodd" d="M109.759 319.961C123.18 319.961 134.06 322.319 134.06 325.227C134.06 328.135 123.18 330.492 109.759 330.492C96.3377 330.492 85.4579 328.135 85.4579 325.227C85.4579 322.319 96.3377 319.961 109.759 319.961Z" fill="url(#paint22_linear_1547_884)"/>
<path fill-rule="evenodd" clip-rule="evenodd" d="M142.142 294.595C143.971 297.798 144.995 301.387 144.995 305.178C144.995 318.711 131.939 329.682 115.834 329.682C99.7287 329.682 86.673 318.711 86.673 305.178C86.673 301.167 87.8197 297.381 89.8528 294.039C102.771 296.084 128.484 295.952 142.142 294.595Z" fill="#0744F2"/>
<mask id="mask4_1547_884" style="mask-type:luminance" maskUnits="userSpaceOnUse" x="86" y="294" width="59" height="36">
<path fill-rule="evenodd" clip-rule="evenodd" d="M142.142 294.595C143.971 297.798 144.995 301.387 144.995 305.178C144.995 318.711 131.939 329.682 115.834 329.682C99.7287 329.682 86.673 318.711 86.673 305.178C86.673 301.167 87.8197 297.381 89.8528 294.039C102.771 296.084 128.484 295.952 142.142 294.595Z" fill="white"/>
</mask>
<g mask="url(#mask4_1547_884)">
</g>
<path fill-rule="evenodd" clip-rule="evenodd" d="M116.036 289.179C130.688 289.179 142.565 291.99 142.565 295.457C142.565 298.924 130.688 301.735 116.036 301.735C101.385 301.735 89.508 298.924 89.508 295.457C89.508 291.99 101.385 289.179 116.036 289.179Z" fill="url(#paint23_linear_1547_884)"/>
<mask id="mask5_1547_884" style="mask-type:luminance" maskUnits="userSpaceOnUse" x="89" y="289" width="54" height="13">
<path fill-rule="evenodd" clip-rule="evenodd" d="M116.036 289.179C130.688 289.179 142.565 291.99 142.565 295.457C142.565 298.924 130.688 301.735 116.036 301.735C101.385 301.735 89.508 298.924 89.508 295.457C89.508 291.99 101.385 289.179 116.036 289.179Z" fill="white"/>
</mask>
<g mask="url(#mask5_1547_884)">
</g>
<path fill-rule="evenodd" clip-rule="evenodd" d="M113.809 290.799C112.36 280.773 108.375 266.295 96.3932 250.701C89.3353 241.515 89.3123 219.145 88.293 216.678C93.8312 218.583 103.78 223.492 113.809 237.335C124.322 251.846 117.653 281.439 113.809 290.799Z" fill="#E7515C"/>
<mask id="mask6_1547_884" style="mask-type:luminance" maskUnits="userSpaceOnUse" x="88" y="216" width="32" height="75">
<path fill-rule="evenodd" clip-rule="evenodd" d="M113.809 290.799C112.36 280.773 108.375 266.295 96.3932 250.701C89.3353 241.515 89.3123 219.145 88.293 216.678C93.8312 218.583 103.78 223.492 113.809 237.335C124.322 251.846 117.653 281.439 113.809 290.799Z" fill="white"/>
</mask>
<g mask="url(#mask6_1547_884)">
<g style="mix-blend-mode:multiply" opacity="0.5">
<path d="M112.049 277.133L105.43 245.807C109.607 254.737 111.656 264.572 112.049 277.133Z" fill="black" fill-opacity="0.01"/>
<path d="M112.049 277.133L105.43 245.807C109.607 254.737 111.656 264.572 112.049 277.133Z" stroke="#489C71" stroke-width="3"/>
</g>
</g>
<path fill-rule="evenodd" clip-rule="evenodd" d="M113.854 301.09C109.378 293.931 101.47 284.229 87.0853 276.362C78.6117 271.728 71.0746 254.677 69.4675 253.138C74.3337 252.729 83.5757 253.131 95.8816 260.318C108.782 267.852 113.64 292.661 113.854 301.09Z" fill="#E7515C"/>
<mask id="mask7_1547_884" style="mask-type:luminance" maskUnits="userSpaceOnUse" x="69" y="253" width="45" height="49">
<path fill-rule="evenodd" clip-rule="evenodd" d="M113.854 301.09C109.378 293.931 101.47 284.229 87.0853 276.362C78.6117 271.728 71.0746 254.677 69.4675 253.138C74.3337 252.729 83.5757 253.131 95.8816 260.318C108.782 267.852 113.64 292.661 113.854 301.09Z" fill="white"/>
</mask>
<g mask="url(#mask7_1547_884)">
<g style="mix-blend-mode:multiply" opacity="0.5">
<path d="M106.334 288.632L93.9459 271.406C98.69 275.953 102.653 281.482 106.334 288.632Z" fill="black" fill-opacity="0.01"/>
<path d="M106.334 288.632L93.9459 271.406C98.69 275.953 102.653 281.482 106.334 288.632Z" stroke="#489C71" stroke-width="3"/>
</g>
</g>
<path fill-rule="evenodd" clip-rule="evenodd" d="M117.068 302.071C120.597 294.366 127.215 283.685 140.522 273.997C148.361 268.29 153.655 250.339 155.057 248.599C150.156 248.82 141.003 250.412 129.678 259.156C117.807 268.321 116.187 293.651 117.068 302.071Z" fill="#E7515C"/>
<mask id="mask8_1547_884" style="mask-type:luminance" maskUnits="userSpaceOnUse" x="116" y="248" width="40" height="55">
<path fill-rule="evenodd" clip-rule="evenodd" d="M117.068 302.071C120.597 294.366 127.215 283.685 140.522 273.997C148.361 268.29 153.655 250.339 155.057 248.599C150.156 248.82 141.003 250.412 129.678 259.156C117.807 268.321 116.187 293.651 117.068 302.071Z" fill="white"/>
</mask>
<g mask="url(#mask8_1547_884)">
<g style="mix-blend-mode:multiply" opacity="0.5">
<path fill-rule="evenodd" clip-rule="evenodd" d="M116.042 302.055C120.901 282.23 126.968 270.6 138.06 261.197L116.042 302.055Z" fill="#E7515C"/>
</g>
</g>
<defs>
<filter id="filter0_i_1547_884" x="324.499" y="181.802" width="125.073" height="95.6718" filterUnits="userSpaceOnUse" color-interpolation-filters="sRGB">
<feFlood flood-opacity="0" result="BackgroundImageFix"/>
<feBlend mode="normal" in="SourceGraphic" in2="BackgroundImageFix" result="shape"/>
<feColorMatrix in="SourceAlpha" type="matrix" values="0 0 0 0 0 0 0 0 0 0 0 0 0 0 0 0 0 0 127 0" result="hardAlpha"/>
<feOffset dx="-12" dy="1"/>
<feGaussianBlur stdDeviation="13.5"/>
<feComposite in2="hardAlpha" operator="arithmetic" k2="-1" k3="1"/>
<feColorMatrix type="matrix" values="0 0 0 0 0.0901961 0 0 0 0 0.254902 0 0 0 0 0.572549 0 0 0 0.204201 0"/>
<feBlend mode="normal" in2="shape" result="effect1_innerShadow_1547_884"/>
</filter>
<linearGradient id="paint0_linear_1547_884" x1="373.5" y1="160.224" x2="373.5" y2="21.2244" gradientUnits="userSpaceOnUse">
<stop stop-color="#ECF2FC" stop-opacity="0.642323"/>
<stop offset="1" stop-color="#D4E1F8"/>
</linearGradient>
<linearGradient id="paint1_linear_1547_884" x1="226.627" y1="157.479" x2="180.813" y2="217.491" gradientUnits="userSpaceOnUse">
<stop stop-color="#CFDDF3"/>
<stop offset="1" stop-color="#A1B8E3"/>
</linearGradient>
<linearGradient id="paint2_linear_1547_884" x1="216.509" y1="221.652" x2="232.567" y2="248.377" gradientUnits="userSpaceOnUse">
<stop stop-color="#CFDDF3"/>
<stop offset="1" stop-color="#A1B8E3"/>
</linearGradient>
<linearGradient id="paint3_linear_1547_884" x1="216.945" y1="200.695" x2="226.557" y2="216.693" gradientUnits="userSpaceOnUse">
<stop stop-color="#CFDDF3"/>
<stop offset="1" stop-color="#A1B8E3"/>
</linearGradient>
<linearGradient id="paint4_linear_1547_884" x1="207.331" y1="168.751" x2="276.842" y2="284.437" gradientUnits="userSpaceOnUse">
<stop stop-color="#CFDDF3"/>
<stop offset="1" stop-color="#A1B8E3"/>
</linearGradient>
<linearGradient id="paint5_linear_1547_884" x1="318.221" y1="182.349" x2="319.865" y2="276.541" gradientUnits="userSpaceOnUse">
<stop stop-color="#CFDDF3"/>
<stop offset="1" stop-color="#A1B8E3"/>
</linearGradient>
<linearGradient id="paint6_linear_1547_884" x1="317.682" y1="128.467" x2="299.57" y2="146.11" gradientUnits="userSpaceOnUse">
<stop stop-color="#CFDDF3"/>
<stop offset="1" stop-color="#A1B8E3"/>
</linearGradient>
<linearGradient id="paint7_linear_1547_884" x1="412.251" y1="199.601" x2="405.175" y2="175.327" gradientUnits="userSpaceOnUse">
<stop stop-color="#CFDDF3"/>
<stop offset="1" stop-color="#A1B8E3"/>
</linearGradient>
<linearGradient id="paint8_linear_1547_884" x1="403.282" y1="223.873" x2="397.486" y2="199.261" gradientUnits="userSpaceOnUse">
<stop stop-color="#CFDDF3"/>
<stop offset="1" stop-color="#A1B8E3"/>
</linearGradient>
<linearGradient id="paint9_linear_1547_884" x1="396.431" y1="244.83" x2="390.636" y2="220.218" gradientUnits="userSpaceOnUse">
<stop stop-color="#CFDDF3"/>
<stop offset="1" stop-color="#A1B8E3"/>
</linearGradient>
<linearGradient id="paint10_linear_1547_884" x1="395.454" y1="129.292" x2="371.511" y2="121.165" gradientUnits="userSpaceOnUse">
<stop stop-color="#CFDDF3"/>
<stop offset="1" stop-color="#A1B8E3"/>
</linearGradient>
<linearGradient id="paint11_linear_1547_884" x1="297.346" y1="155.46" x2="282.934" y2="176.235" gradientUnits="userSpaceOnUse">
<stop stop-color="#CFDDF3"/>
<stop offset="1" stop-color="#A1B8E3"/>
</linearGradient>
<linearGradient id="paint12_linear_1547_884" x1="284.393" y1="181.312" x2="272.231" y2="203.48" gradientUnits="userSpaceOnUse">
<stop stop-color="#CFDDF3"/>
<stop offset="1" stop-color="#A1B8E3"/>
</linearGradient>
<linearGradient id="paint13_linear_1547_884" x1="228.638" y1="-5.8529" x2="154.628" y2="89.7625" gradientUnits="userSpaceOnUse">
<stop stop-color="#D2E0F9" stop-opacity="0.01"/>
<stop offset="1" stop-color="#B1C6E7" stop-opacity="0.464589"/>
</linearGradient>
<linearGradient id="paint14_linear_1547_884" x1="221.769" y1="29.3367" x2="163.393" y2="104.753" gradientUnits="userSpaceOnUse">
<stop stop-color="#D2E0F9" stop-opacity="0.01"/>
<stop offset="1" stop-color="#B1C6E7" stop-opacity="0.464589"/>
</linearGradient>
<linearGradient id="paint15_linear_1547_884" x1="370.894" y1="29.8331" x2="296.883" y2="125.449" gradientUnits="userSpaceOnUse">
<stop stop-color="#D2E0F9" stop-opacity="0.01"/>
<stop offset="1" stop-color="#B1C6E7" stop-opacity="0.464589"/>
</linearGradient>
<linearGradient id="paint16_linear_1547_884" x1="364.025" y1="65.0227" x2="305.649" y2="140.439" gradientUnits="userSpaceOnUse">
<stop stop-color="#D2E0F9" stop-opacity="0.01"/>
<stop offset="1" stop-color="#B1C6E7" stop-opacity="0.464589"/>
</linearGradient>
<linearGradient id="paint17_linear_1547_884" x1="240.004" y1="253.985" x2="283.672" y2="242.509" gradientUnits="userSpaceOnUse">
<stop stop-color="#EAF0F7" stop-opacity="0.115546"/>
<stop offset="1" stop-color="#D1DDED"/>
</linearGradient>
<linearGradient id="paint18_linear_1547_884" x1="-37.0459" y1="294.083" x2="-32.9227" y2="341.657" gradientUnits="userSpaceOnUse">
<stop stop-color="#EAEFFF"/>
<stop offset="1" stop-color="#F7F9FE"/>
</linearGradient>
<linearGradient id="paint19_linear_1547_884" x1="214.74" y1="258.325" x2="213.227" y2="296.13" gradientUnits="userSpaceOnUse">
<stop stop-color="#0041B2"/>
<stop offset="1" stop-color="#2D64D7" stop-opacity="0.01"/>
</linearGradient>
<linearGradient id="paint20_linear_1547_884" x1="267.502" y1="216.83" x2="254.818" y2="218.544" gradientUnits="userSpaceOnUse">
<stop stop-color="#FF7F31"/>
<stop offset="1" stop-color="#FFC83A" stop-opacity="0.01"/>
</linearGradient>
<linearGradient id="paint21_linear_1547_884" x1="205.726" y1="280.013" x2="223.398" y2="267.712" gradientUnits="userSpaceOnUse">
<stop stop-color="#FF7F31"/>
<stop offset="1" stop-color="#FFC83A" stop-opacity="0.01"/>
</linearGradient>
<linearGradient id="paint22_linear_1547_884" x1="134.06" y1="319.961" x2="85.4579" y2="319.961" gradientUnits="userSpaceOnUse">
<stop stop-color="#D9E5F6" stop-opacity="0.712636"/>
<stop offset="1" stop-color="#B2C6EA"/>
</linearGradient>
<linearGradient id="paint23_linear_1547_884" x1="91.8685" y1="286.836" x2="90.6914" y2="306.33" gradientUnits="userSpaceOnUse">
<stop stop-color="#86A8D9"/>
<stop offset="1" stop-color="#BCD0F2"/>
</linearGradient>
</defs>
</svg>
